<svg xmlns="http://www.w3.org/2000/svg" viewBox="0 0 482.18 494.36">
    <defs>
        <style>
            .cls-1,.cls-2,.cls-4{fill:none;}.cls-1,.cls-2,.cls-4,.cls-5{stroke:#000;stroke-miterlimit:10;}.cls-1{stroke-width:3px;}.cls-2{stroke-width:2px;}.cls-3{fill:#fff;}
        </style>
    </defs>
    <title>nkoba-head</title>
    <g id="Layer_2" data-name="Layer 2">
        <g id="Layer_2-2" data-name="Layer 2">
            <path class="cls-1"
                  d="M98.66,44c36.25-24.41,75.84-32.64,92-36,17.27-3.6,49.89-10.08,92-4a241.21,241.21,0,0,1,76,24c16.42,8.57,60.33,32.23,88,82,13.45,24.19,18.16,45.73,25,77,5,22.92,9.33,42.64,9,69-.14,11.16-1.5,55.13-26,105-7.78,15.82-22,44.15-52,71-27,24.22-53.29,35.07-68,41-19.86,8-65.12,25.61-122,18-71-9.51-116.07-52.41-132-68-11.92-11.67-89.51-90.24-78-207C3.81,204.36,15.69,99.85,98.66,44Z"/>
            <path class="cls-2"
                  d="M95.66,79c27.64-26.15,63-39.06,82-46,26-9.5,43.18-11.41,50-12a184.31,184.31,0,0,1,56,4,176.44,176.44,0,0,1,38,12c4.53,2,25.46,11.76,50,35,14.36,13.59,46.08,44.37,62,96,10,32.27,9.41,58.68,9,73-.48,16.77-1.92,53.1-22,94-5.5,11.19-19.16,38.35-46,62-24.85,21.89-47.12,28.54-57,41-1.14,1.44-5.37,7.05-11,7a11.24,11.24,0,0,1-7-3,19,19,0,0,1,0,10c-3.41,11.71-18.83,16.1-29,19-20.48,5.82-37.09,2.52-49,0-18.76-4-23.78-9.65-26-13a25.69,25.69,0,0,1-4-12,142.17,142.17,0,0,1-27-8c-42.77-17.53-65.22-51.79-80-75-12.59-19.79-42.41-68.06-42-137C42.8,202.75,43.25,128.56,95.66,79Z"/>
            <path d="M95.66,79c27.64-26.15,63-39.06,82-46,26-9.5,43.18-11.41,50-12a184.31,184.31,0,0,1,56,4,176.44,176.44,0,0,1,38,12c4.53,2,25.46,11.76,50,35,14.36,13.59,46.08,44.37,62,96,10,32.27,9.41,58.68,9,73-.48,16.77-1.92,53.1-22,94-5.5,11.19-19.16,38.35-46,62-24.85,21.89-47.12,28.54-57,41-1.14,1.44-5.37,7.05-11,7a11.24,11.24,0,0,1-7-3,19,19,0,0,1,0,10c-3.41,11.71-18.83,16.1-29,19-20.48,5.82-37.09,2.52-49,0-18.76-4-23.78-9.65-26-13a25.69,25.69,0,0,1-4-12,142.17,142.17,0,0,1-27-8c-42.77-17.53-65.22-51.79-80-75-12.59-19.79-42.41-68.06-42-137,0-1.6,0-2.84,0-3.56,0,0,0-.28,0-.56C44.15,130.09,95.66,79,95.66,79Z"/>
            <path class="cls-3"
                  d="M200.16,312.5c.11-4.52,19.45-8.54,35-9,13.88-.42,24.49,2,33,4,11.59,2.72,25.36,7.3,25,9-.29,1.4-9.94-.94-28-1-22.76-.09-34.14-.14-42,2-2.17.58-8.87,2.52-16,0C206,317.07,200.1,315,200.16,312.5Z"/>
            <path class="cls-3"
                  d="M212.16,403.5c-2.29-2.73-.79-8.48,2-12,1.25-1.58,2.76-2.71,11-6,7.44-3,11.16-4.47,14-5a50.2,50.2,0,0,1,17,0c5.71.74,8.56,1.11,12,3a21.74,21.74,0,0,1,10,11c.31.79,2.77,7.43,0,13-.53,1.07-1.38,2.71-3,3-1.77.3-3.39-1.42-4-2-3.1-2.94-8.18-2.89-17-3-30.59-.4-23.91-1.64-31-1C217.58,405,214,405.71,212.16,403.5Z"/>
            <path class="cls-3"
                  d="M223.16,195.5q6.5-19.5,13-39a173.62,173.62,0,0,0-29-18c-11.8-5.81-30.1-14.82-53-16-32.28-1.68-56.23,13.07-66,19-7,4.21-23,14.15-36,33-.85,1.23-1.54,2.28-2,3a166.68,166.68,0,0,0-3,42.5c0,.21,0,.38,0,.5a134,134,0,0,1,15-20c7.46-8.23,21.42-23.61,43-31,16.09-5.52,29.65-4.27,42-3C180.27,169.9,206.29,183.82,223.16,195.5Z"/>
            <path class="cls-3"
                  d="M258.16,157.5a147.17,147.17,0,0,1,18-13,145.48,145.48,0,0,1,36-16c9.51-2.69,32.78-9.25,59-3,31.92,7.6,59,32,59,32s3.94,11.38,6,18a199.31,199.31,0,0,1,6,25,157.66,157.66,0,0,0-66-33c-17.1-3.88-42.37-9.61-70,2a95.07,95.07,0,0,0-36,27,58.11,58.11,0,0,1-12-39Z"/>
            <path class="cls-3"
                  d="M72.16,117.5a185.7,185.7,0,0,1,47-24s40.06-13,81-8a88.28,88.28,0,0,1,41,16q-.49-15.51-1-31a207.89,207.89,0,0,0-55-8,211.06,211.06,0,0,0-87,18Z"/>
            <path class="cls-3"
                  d="M247.16,67.5q.5,16,1,32a116.72,116.72,0,0,1,40-17c25.88-5.59,47-.68,62,3a173.66,173.66,0,0,1,45,18,148.9,148.9,0,0,0-44-43,160.45,160.45,0,0,0-104,7Z"/>
            <path class="cls-3"
                  d="M247.16,34.5a79.32,79.32,0,0,1,14-4,82.91,82.91,0,0,1,35,1,138.17,138.17,0,0,0-53-8Q245.16,29,247.16,34.5Z"/>
            <path class="cls-3" d="M173.16,38.5a84.42,84.42,0,0,1,65,1v-16a117,117,0,0,0-65,15Z"/>
            <path class="cls-3"
                  d="M63.16,258.5a137.89,137.89,0,0,1,40-48,85.7,85.7,0,0,1,38-2,88.24,88.24,0,0,1,31,12,92.51,92.51,0,0,1,32,34,46,46,0,0,1-3,10c-10.34,24-40.74,36.73-66,37-2.5,0-35-.14-59-25A79.14,79.14,0,0,1,63.16,258.5Z"/>
            <path class="cls-4"
                  d="M85.16,256.5c4.06-5.24,14.49-17.14,32-22s32.7.61,37.14,2.14l1.19.42a65.28,65.28,0,0,1,24.67,15.44,94.27,94.27,0,0,1-27,15c-9.59,3.4-24.44,8.66-42,4A59.65,59.65,0,0,1,85.16,256.5Z"/>
            <path class="cls-5"
                  d="M129,243.7c-8.26,3.32-23.51,9.44-23.17,16.74.27,5.64,9.76,9.87,11.08,10.46A24.58,24.58,0,0,0,127,273a50.92,50.92,0,0,1-26.2-5.23,52,52,0,0,1-15.11-11.51,60.76,60.76,0,0,1,28.21-19.87,59,59,0,0,1,39.29,1.05A98.36,98.36,0,0,0,129,243.7Z"/>
            <path class="cls-3"
                  d="M285.16,259.5c-1.49-1-4.88-3-5-6-.1-2.62,2.39-4.67,4-6,14.24-11.83,9.56-9.61,15-13,27-16.82,51-21,51-21,14.45-2.52,23.91-4.17,35,0,8.9,3.33,16.81,9.65,21,13,6,4.82,4.11,4.42,14,13a51.52,51.52,0,0,1,9,10c2.32,3.39,3.21,5.61,3,8a10.51,10.51,0,0,1-3,6c-5.77,6.66-11.19,9.89-16,14-6.31,5.39-5,6.67-10,11-2.69,2.32-8.38,6.55-25,10-15,3.11-23.54,4.87-35,3-20.41-3.35-36.12-15.93-43-24C294.19,270.49,292.89,264.58,285.16,259.5Z"/>
            <path class="cls-4"
                  d="M310.16,259.5c8-6.72,23.8-18,46-21,26.85-3.6,57.38,5.77,58,15,.25,3.71-4.38,7-10,11s-12.06,6.67-24,9c-14.17,2.75-21.77,4.24-32,3C330.18,274.31,317.12,265.31,310.16,259.5Z"/>
            <path class="cls-5"
                  d="M310.16,258.5a92.48,92.48,0,0,1,18-12c5.64-2.87,15.53-7.8,29-9,9.18-.83,16,.44,24,2a135.4,135.4,0,0,1,35,12,4.87,4.87,0,0,1,0,3,5.87,5.87,0,0,1-3,3c-3,1.55-9.35,5.19-18,10l-2-4c.33-1.67.67-3.34,1-5a66.59,66.59,0,0,0-9-4c-10.53-3.8-19.21-3.94-27-4-15.43-.13-27.53,2.71-37,5C316.53,256.61,312.74,257.71,310.16,258.5Z"/>
            <path d="M84.91,91.14c-5.53,5.28-9.42,12.43-13.69,18.7-1.09,1.6,1.51,3.11,2.59,1.52,4.12-6.06,7.89-13,13.22-18.1,1.4-1.33-.72-3.45-2.12-2.12Z"/>
            <path d="M71.18,110.2c-3,2.89-4.6,6.42-6.09,10.24-2.19,5.64-4.29,11.32-6.43,17-.68,1.81,2.21,2.59,2.89.8l5.14-13.57c1.68-4.45,3.13-8.93,6.61-12.33,1.39-1.35-.73-3.47-2.12-2.12Z"/>
            <path d="M61.92,129.15c-2.94,2.57-2.21,7.22-5.11,9.63-1.49,1.24.64,3.35,2.12,2.12,3-2.52,2.26-7.14,5.12-9.63,1.45-1.26-.67-3.38-2.13-2.12Z"/>
            <path d="M56.7,139.43a47.3,47.3,0,0,0-3.92,11.06c-.41,1.88,2.48,2.69,2.89.8A43.94,43.94,0,0,1,59.29,141c.86-1.72-1.73-3.25-2.59-1.52Z"/>
            <path d="M53.22,151Q50,163,47.89,175.31c-.31,1.88,2.58,2.7,2.9.79q2.07-12.27,5.33-24.27a1.51,1.51,0,0,0-2.9-.8Z"/>
            <path d="M49.84,177.84a95.93,95.93,0,0,1,2.5-9.56c.59-1.84-2.31-2.63-2.89-.8a98.23,98.23,0,0,0-2.51,9.57c-.39,1.88,2.5,2.69,2.9.79Z"/>
            <path d="M427.77,154.72a1.5,1.5,0,0,0,0-3,1.5,1.5,0,0,0,0,3Z"/>
            <path d="M427.5,154.72a1.5,1.5,0,0,0,0-3,1.5,1.5,0,0,0,0,3Z"/>
            <path d="M427.55,155.85a149.55,149.55,0,0,1,11.94,57.22,1.5,1.5,0,0,0,3,0,153.49,153.49,0,0,0-12.35-58.73c-.76-1.77-3.34-.24-2.59,1.51Z"/>
            <path d="M381.54,241.37a122.84,122.84,0,0,1,16.52,4.46,1.51,1.51,0,0,0,1.45-2.51l-.5-.42-1.46,2.51,5.66,2.33c1.44.6,2.44-1.53,1.46-2.51a2.82,2.82,0,0,0-1.94-.87c-1.83-.24-1.79,2.37-.4,2.95l5.47,2.3c1.78.74,2.56-2.16.8-2.9l-5.47-2.29-.4,2.94h-.19l1.46-2.5-5.65-2.34c-1.38-.57-2.57,1.58-1.46,2.51l.5.43,1.46-2.51a120.59,120.59,0,0,0-16.52-4.46c-1.88-.4-2.68,2.49-.79,2.89Z"/>
            <path d="M408.05,257.56A40.87,40.87,0,0,1,395.44,266c-1.75.81-.23,3.39,1.51,2.59a42.74,42.74,0,0,0,13.22-8.95c1.34-1.38-.78-3.51-2.12-2.12Z"/>
            <path d="M396.09,268.62a1.5,1.5,0,0,0,0-3,1.5,1.5,0,0,0,0,3Z"/>
            <path d="M396.09,268.62a1.5,1.5,0,0,0,0-3,1.5,1.5,0,0,0,0,3Z"/>
            <path d="M396,268.67a1.5,1.5,0,0,0,0-3,1.5,1.5,0,0,0,0,3Z"/>
            <path d="M394,264.78a1.5,1.5,0,0,0,0-3,1.5,1.5,0,0,0,0,3Z"/>
            <path d="M394.36,265.48a1.5,1.5,0,0,0,0-3,1.5,1.5,0,0,0,0,3Z"/>
            <path d="M394.74,266.29a1.5,1.5,0,0,0,0-3,1.5,1.5,0,0,0,0,3Z"/>
            <path d="M394.2,263.7a1.5,1.5,0,0,0,0-3,1.5,1.5,0,0,0,0,3Z"/>
            <path d="M394.41,262.24a1.5,1.5,0,0,0,0-3,1.5,1.5,0,0,0,0,3Z"/>
            <path d="M394.79,260.62a1.5,1.5,0,0,0,0-3,1.5,1.5,0,0,0,0,3Z"/>
        </g>
    </g>
</svg>