<?xml version="1.0"?>
<svg fill="#000000" xmlns="http://www.w3.org/2000/svg" viewBox="0 0 128 128" width="64px" height="64px">
    <path d="M 14 15 C 9.6 15 6 18.6 6 23 L 6 99 C 6 103.4 9.6 107 14 107 L 43.800781 107 L 42.699219 113.5 C 42.399219 115.1 43.499219 116.7 45.199219 117 L 45.699219 117 C 47.099219 117 48.399219 116 48.699219 114.5 L 52 94.5 C 52.3 92.9 51.2 91.3 49.5 91 C 49.2 90.9 48.899609 91 48.599609 91 L 12 91 L 12 23 C 12 21.9 12.9 21 14 21 L 114 21 C 115.1 21 116 21.9 116 23 L 116 92.400391 C 99.5 91.300391 84.800781 80.9 78.300781 65.5 L 77.300781 63.199219 C 76.900781 61.799219 75.5 60.799609 74 61.099609 C 72.4 61.399609 71.2 62.9 71.5 64.5 L 77.699219 103.69922 L 77.699219 104 C 77.699219 104.5 77.8 104.90078 78 105.30078 L 80.099609 118.69922 C 80.199609 119.49922 79.899219 120.10078 79.699219 120.30078 C 79.499219 120.50078 78.999219 121 78.199219 121 L 29.900391 121 C 28.200391 121 26.900391 122.3 26.900391 124 C 26.900391 125.7 28.200391 127 29.900391 127 L 98.099609 127 C 99.799609 127 101.09961 125.7 101.09961 124 C 101.09961 122.3 99.799609 121 98.099609 121 L 85.800781 121 C 86.100781 119.9 86.100391 118.79922 85.900391 117.69922 L 84.300781 107 L 114 107 C 118.4 107 122 103.4 122 99 L 122 23 C 122 18.6 118.4 15 114 15 L 14 15 z M 64 35 C 60.1 35 57 38.1 57 42 C 57 45.9 60.1 49 64 49 C 66.4 49 68.600781 47.700781 69.800781 45.800781 C 68.700781 44.900781 68 43.6 68 42 C 68 40.4 68.700781 39.099219 69.800781 38.199219 C 68.600781 36.299219 66.4 35 64 35 z M 64 90 A 7 7 0 0 0 57 97 A 7 7 0 0 0 64 104 A 7 7 0 0 0 71 97 A 7 7 0 0 0 64 90 z M 113.09961 121 A 3 3 0 0 0 110.09961 124 A 3 3 0 0 0 113.09961 127 A 3 3 0 0 0 116.09961 124 A 3 3 0 0 0 113.09961 121 z"/>
</svg>