<?xml version="1.0"?>
<svg fill="#000000" xmlns="http://www.w3.org/2000/svg" viewBox="0 0 128 128" width="50px" height="50px">
    <path d="M 110.90039 2 C 109.20039 2 107.90039 3.3 107.90039 5 C 107.90039 6.7 109.20039 8 110.90039 8 L 113.69922 8 L 80 41.800781 L 50.099609 11.900391 C 48.899609 10.700391 47.000391 10.700391 45.900391 11.900391 L 12.900391 44.5 C 11.700391 45.7 11.700391 47.599219 12.900391 48.699219 C 13.500391 49.299219 14.3 49.599609 15 49.599609 C 15.8 49.599609 16.499609 49.299219 17.099609 48.699219 L 48 18.199219 L 77.900391 48.099609 C 79.100391 49.299609 80.999609 49.299609 82.099609 48.099609 L 118 12.199219 L 118 15 C 118 16.7 119.3 18 121 18 C 122.7 18 124 16.7 124 15 L 124 5 C 124 3.8 123.29961 2.6992187 122.09961 2.1992188 C 121.79961 2.0992187 121.4 2 121 2 L 120.90039 2 L 110.90039 2 z M 102 51 C 100.3 51 99 52.3 99 54 L 99 124 C 99 125.7 100.3 127 102 127 L 120 127 C 121.7 127 123 125.7 123 124 L 123 54 C 123 52.3 121.7 51 120 51 L 102 51 z M 4.9003906 53.599609 C 3.2003906 53.599609 1.9 54.999219 2 56.699219 L 2 57.099609 C 2 58.699609 3.3996094 60 5.0996094 60 C 6.7996094 60 8.1 58.600391 8 56.900391 L 8 56.5 C 8 54.8 6.6003906 53.599609 4.9003906 53.599609 z M 38 61 C 36.3 61 35 62.3 35 64 L 35 124 C 35 125.7 36.3 127 38 127 L 56 127 C 57.7 127 59 125.7 59 124 L 59 64 C 59 62.3 57.7 61 56 61 L 38 61 z M 41 67 L 53 67 L 53 121 L 41 121 L 41 67 z M 70 81 C 68.3 81 67 82.3 67 84 L 67 124 C 67 125.7 68.3 127 70 127 L 88 127 C 89.7 127 91 125.7 91 124 L 91 84 C 91 82.3 89.7 81 88 81 L 70 81 z M 73 87 L 85 87 L 85 121 L 73 121 L 73 87 z M 6 91 C 4.3 91 3 92.3 3 94 L 3 124 C 3 125.7 4.3 127 6 127 L 24 127 C 25.7 127 27 125.7 27 124 L 27 94 C 27 92.3 25.7 91 24 91 L 6 91 z M 9 97 L 21 97 L 21 121 L 9 121 L 9 97 z"/>
</svg>