<?xml version="1.0"?>
<svg fill="#000000" xmlns="http://www.w3.org/2000/svg" viewBox="0 0 128 128" width="50px" height="50px">
    <path d="M64,6c-14.6,0-28.5,5.4-39.3,15.3C14.1,31.1,7.5,44.5,6.2,58.9C6.1,60.5,7.3,62,9,62.1c1.6,0.2,3.1-1.1,3.3-2.7 c1.1-12.9,7-24.8,16.6-33.6c3.7-3.4,7.8-6.2,12.3-8.4c0.5,15,5.4,29.3,13.9,41.5C45.6,67,34,72.6,21.4,74.9c-1.6-4-5.6-6.8-10.2-6.8 C4.9,68,0,72.9,0,79s4.9,11,11,11c5.4,0,10-4,10.8-9.2c13.8-2.4,26.4-8.5,36.7-17.2c1,1.2,2,2.4,3.1,3.6c0.8,0.8,1.5,1.6,2.3,2.4 c-0.6,1.4-1,2.9-1,4.5c0,6.1,4.9,11,11,11c2.7,0,5.2-1,7.1-2.6c2.3,1.3,4.7,2.5,7.2,3.5c-6.2,11.7-14.8,22-25.4,30 c-16.1-0.3-30.8-7.9-40.5-20.9c-1-1.3-2.9-1.6-4.2-0.6c-1.3,1-1.6,2.9-0.6,4.2C28.6,113.5,45.5,122,64,122c32,0,58-26,58-58 S96,6,64,6z M11,84c-2.8,0-5-2.2-5-5s2.2-5,5-5s5,2.2,5,5S13.8,84,11,84z M59.4,54.7C51.4,43,47.1,29.2,47,14.9 C52.4,13,58.1,12,64,12c5.3,0,10.5,0.8,15.3,2.3C77.2,30,69.9,44,59.4,54.7z M74,79c-2.8,0-5-2.2-5-5s2.2-5,5-5s5,2.2,5,5 S76.8,79,74,79z M84.5,77.4c0.3-1.1,0.5-2.2,0.5-3.4c0-6.1-4.9-11-11-11c-2.3,0-4.4,0.7-6.2,1.9c-0.6-0.6-1.2-1.2-1.8-1.8 c-1-1.2-2-2.4-3-3.6c11.5-11.4,19.5-26.3,22.1-43C103.3,24.6,116,42.8,116,64c0,7.7-1.7,15-4.7,21.6c-5-0.5-9.9-1.5-14.7-3 c4.4-9.7,7.3-20.3,8.8-31.4c0.2-1.6-0.9-3.1-2.6-3.4c-1.6-0.2-3.1,0.9-3.4,2.6c-1.4,10.7-4.3,20.9-8.5,30.1 C88.7,79.6,86.6,78.5,84.5,77.4z M73.2,115.2C81.6,107.5,88.6,98.3,94,88c4.6,1.5,9.4,2.6,14.2,3.3C100.6,103.6,88,112.5,73.2,115.2 z"/>
</svg>