<?xml version="1.0"?>
<svg fill="#000000" xmlns="http://www.w3.org/2000/svg" viewBox="0 0 128 128" width="64px" height="64px">
    <path d="M 24 1 C 16.8 1 11 6.8 11 14 L 11 79 C 11 86.2 16.8 92 24 92 L 92.800781 92 L 111.90039 111.09961 C 112.50039 111.69961 113.2 112 114 112 C 114.4 112 114.79961 111.90078 115.09961 111.80078 C 116.19961 111.30078 117 110.2 117 109 L 117 14 C 117 6.8 111.2 1 104 1 L 24 1 z M 24 7 L 104 7 C 107.9 7 111 10.1 111 14 L 111 101.80078 L 96.099609 86.900391 C 95.599609 86.300391 94.8 86 94 86 L 24 86 C 20.1 86 17 82.9 17 79 L 17 14 C 17 10.1 20.1 7 24 7 z M 40 36 C 38.3 36 37 37.3 37 39 C 37 40.7 38.3 42 40 42 L 88 42 C 89.7 42 91 40.7 91 39 C 91 37.3 89.7 36 88 36 L 40 36 z M 40 51 C 38.3 51 37 52.3 37 54 C 37 55.7 38.3 57 40 57 L 73 57 C 74.7 57 76 55.7 76 54 C 76 52.3 74.7 51 73 51 L 40 51 z M 88 51 A 3 3 0 0 0 85 54 A 3 3 0 0 0 88 57 A 3 3 0 0 0 91 54 A 3 3 0 0 0 88 51 z M 24 121 A 3 3 0 0 0 21 124 A 3 3 0 0 0 24 127 A 3 3 0 0 0 27 124 A 3 3 0 0 0 24 121 z M 39 121 C 37.3 121 36 122.3 36 124 C 36 125.7 37.3 127 39 127 L 114 127 C 115.7 127 117 125.7 117 124 C 117 122.3 115.7 121 114 121 L 39 121 z"/>
</svg>