<?xml version="1.0" encoding="UTF-8"?>
<svg xmlns="http://www.w3.org/2000/svg" xmlns:xlink="http://www.w3.org/1999/xlink" width="64pt" height="64pt"
     viewBox="0 0 64 64" version="1.1">
    <g id="surface104543">
        <path style=" stroke:none;fill-rule:nonzero;fill:rgb(100%,100%,100%);fill-opacity:1;"
              d="M 33.898438 58.449219 C 33.050781 58.449219 32.398438 57.75 32.398438 56.949219 C 32.398438 56.5 32.398438 46.648438 32.398438 38.300781 C 32.398438 37.449219 33.050781 36.800781 33.898438 36.800781 L 37.800781 36.800781 L 38.148438 33.199219 L 33.898438 33.199219 C 33.050781 33.199219 32.398438 32.550781 32.398438 31.699219 L 32.398438 27.800781 C 32.398438 25.550781 34.050781 24.5 35.550781 24.5 L 38.25 24.5 L 38.25 21.050781 L 34 21.050781 C 28.25 21.050781 27.648438 25.5 27.648438 27.398438 L 27.648438 31.699219 C 27.648438 32.550781 27 33.199219 26.148438 33.199219 L 22.699219 33.199219 L 22.699219 36.800781 L 26.148438 36.800781 C 27 36.800781 27.648438 37.449219 27.648438 38.300781 L 27.648438 56.351562 C 27.648438 57.199219 27 57.851562 26.148438 57.851562 C 25.300781 57.851562 24.648438 57.199219 24.648438 56.351562 L 24.648438 39.800781 L 21.199219 39.800781 C 20.351562 39.800781 19.699219 39.148438 19.699219 38.300781 L 19.699219 31.648438 C 19.699219 30.800781 20.351562 30.148438 21.199219 30.148438 L 24.648438 30.148438 L 24.648438 27.351562 C 24.648438 23.050781 27.101562 18 34 18 L 39.75 18 C 40.601562 18 41.25 18.648438 41.25 19.5 L 41.25 26 C 41.25 26.851562 40.601562 27.5 39.75 27.5 L 35.550781 27.5 C 35.5 27.5 35.449219 27.5 35.449219 27.5 C 35.449219 27.550781 35.398438 27.648438 35.398438 27.800781 L 35.398438 30.199219 L 39.851562 30.199219 C 40.25 30.199219 40.699219 30.398438 40.949219 30.699219 C 41.25 31 41.351562 31.449219 41.351562 31.851562 L 40.648438 38.449219 C 40.550781 39.199219 39.949219 39.800781 39.148438 39.800781 L 35.398438 39.800781 C 35.398438 43.648438 35.398438 47.648438 35.398438 50.851562 L 35.398438 56.550781 C 35.398438 56.648438 35.398438 56.75 35.398438 56.851562 C 35.398438 56.898438 35.398438 56.949219 35.398438 57 C 35.25 58.199219 34.5 58.449219 33.898438 58.449219 Z M 33.898438 58.449219 "/>
        <path style=" stroke:none;fill-rule:nonzero;fill:rgb(100%,100%,100%);fill-opacity:1;"
              d="M 33.898438 58.449219 C 33.101562 58.449219 32.449219 57.851562 32.398438 57.050781 C 32.351562 56.199219 32.949219 55.5 33.800781 55.449219 C 46 54.550781 55.5 44.25 55.5 32 C 55.5 19.050781 44.949219 8.5 32 8.5 C 19.050781 8.5 8.5 19.050781 8.5 32 C 8.5 42.898438 15.898438 52.300781 26.449219 54.851562 C 27.25 55.050781 27.75 55.851562 27.550781 56.648438 C 27.351562 57.449219 26.550781 57.949219 25.75 57.75 C 13.851562 54.898438 5.5 44.300781 5.5 32.050781 C 5.5 17.449219 17.398438 5.550781 32 5.550781 C 46.601562 5.550781 58.5 17.449219 58.5 32.050781 C 58.5 45.851562 47.75 57.449219 34 58.449219 C 33.949219 58.449219 33.949219 58.449219 33.898438 58.449219 Z M 33.898438 58.449219 "/>
    </g>
</svg>
