<?xml version="1.0"?><svg fill="#ffffff" xmlns="http://www.w3.org/2000/svg" viewBox="0 0 128 128" width="50px" height="50px">    <path d="M 64 14 C 42.7 14 25.199609 31.299609 25.099609 52.599609 C 25.199609 60.599609 27.600781 68.4 32.300781 75 C 32.400781 75.2 32.499219 75.399609 32.699219 75.599609 L 60.099609 112 L 60.199219 112.09961 C 61.199219 113.29961 62.6 113.90039 64 113.90039 C 65.4 113.90039 66.800781 113.19961 67.800781 112.09961 L 67.900391 112 L 95.199219 75.599609 C 95.499219 75.299609 95.700391 75.099219 95.900391 74.699219 C 100.40039 68.199219 102.80078 60.499609 102.80078 52.599609 C 102.80078 31.399609 85.4 14 64 14 z M 64 20 C 82.1 20 96.800781 34.699219 96.800781 52.699219 C 96.800781 59.399219 94.800391 65.800391 90.900391 71.400391 C 90.800391 71.500391 90.699219 71.599219 90.699219 71.699219 L 64 107.30078 L 37.400391 71.800781 L 37.300781 71.699219 C 37.300781 71.599219 37.199609 71.6 37.099609 71.5 C 33.199609 65.9 31.099609 59.399219 31.099609 52.699219 C 31.199609 34.599219 46 20 64 20 z M 64 33.099609 C 53.6 33.099609 45.099609 41.300391 45.099609 51.400391 C 45.099609 61.500391 53.6 69.800781 64 69.800781 C 74.4 69.800781 82.900391 61.6 82.900391 51.5 C 82.900391 41.4 74.4 33.099609 64 33.099609 z M 64 39.099609 C 71.1 39.099609 76.900391 44.600391 76.900391 51.400391 C 76.900391 58.200391 71.1 63.800781 64 63.800781 C 56.9 63.800781 51.099609 58.3 51.099609 51.5 C 51.099609 44.7 56.9 39.099609 64 39.099609 z"/></svg>