<?xml version="1.0"?>
<svg fill="#000000" xmlns="http://www.w3.org/2000/svg" viewBox="0 0 128 128" width="50px" height="50px">
    <path d="M 124 1 C 122.3 1 121 2.3 121 4 L 121 31 L 94 31 C 92.3 31 91 32.3 91 34 L 91 61 L 64 61 C 62.3 61 61 62.3 61 64 L 61 91 L 34 91 C 32.3 91 31 92.3 31 94 L 31 121 L 4 121 C 2.3 121 1 122.3 1 124 C 1 125.7 2.3 127 4 127 L 34 127 C 35.7 127 37 125.7 37 124 L 37 97 L 64 97 C 65.7 97 67 95.7 67 94 L 67 67 L 94 67 C 95.7 67 97 65.7 97 64 L 97 37 L 124 37 C 125.7 37 127 35.7 127 34 L 127 4 C 127 2.3 125.7 1 124 1 z M 86.861328 1.6425781 C 86.606641 1.6316406 86.349609 1.6492187 86.099609 1.6992188 L 47.599609 11.300781 C 46.599609 11.600781 45.700391 12.400391 45.400391 13.400391 C 45.100391 14.400391 45.399219 15.600781 46.199219 16.300781 L 53.599609 23.699219 L 22.900391 54.900391 C 21.700391 56.100391 21.700391 57.999609 22.900391 59.099609 C 23.500391 59.699609 24.2 60 25 60 C 25.8 60 26.499609 59.699609 27.099609 59.099609 L 60 25.900391 C 60.1 25.800391 60.099219 25.699609 60.199219 25.599609 L 60.400391 25.400391 C 60.500391 25.300391 60.5 25.199609 60.5 25.099609 C 60.5 24.999609 60.599609 24.900391 60.599609 24.900391 C 60.599609 24.800391 60.699219 24.699609 60.699219 24.599609 C 60.699219 24.499609 60.800781 24.400781 60.800781 24.300781 L 60.800781 24 L 60.800781 23.699219 L 60.800781 23.400391 L 60.800781 23.099609 C 60.800781 22.999609 60.699219 22.900781 60.699219 22.800781 C 60.699219 22.700781 60.699609 22.6 60.599609 22.5 C 60.599609 22.4 60.500391 22.299219 60.400391 22.199219 C 60.400391 22.099219 60.300781 22 60.300781 22 C 60.200781 21.9 60.099609 21.799219 60.099609 21.699219 C 59.999609 21.599219 60 21.6 60 21.5 L 54.300781 15.800781 L 82.800781 8.6992188 L 75.699219 37.199219 L 69.300781 30.800781 C 68.200781 29.700781 66.199609 29.700781 65.099609 30.800781 L 2.0996094 93.800781 C 0.89960938 95.000781 0.89960938 96.9 2.0996094 98 C 2.4996094 98.7 3.2 99 4 99 C 4.8 99 5.4996094 98.699609 6.0996094 98.099609 L 67 37.199219 L 75.099609 45.300781 C 75.899609 46.000781 77 46.3 78 46 C 79 45.7 79.799609 44.900781 80.099609 43.800781 L 89.699219 5.3007812 C 89.999219 4.3007812 89.700391 3.2 88.900391 2.5 C 88.375391 1.975 87.625391 1.6753906 86.861328 1.6425781 z M 6.2011719 72.027344 C 5.6199219 71.982812 5.025 72.100391 4.5 72.400391 C 3.1 73.200391 2.6003906 75.1 3.4003906 76.5 L 3.5996094 76.900391 C 4.1996094 77.900391 5.1992188 78.400391 6.1992188 78.400391 C 6.6992188 78.400391 7.1992188 78.3 7.6992188 78 C 9.0992187 77.2 9.6007813 75.300391 8.8007812 73.900391 L 8.5996094 73.5 C 8.0996094 72.625 7.1699219 72.101562 6.2011719 72.027344 z"/>
</svg>