<?xml version="1.0"?>
<svg fill="#ffffff" xmlns="http://www.w3.org/2000/svg" viewBox="0 0 128 128" width="50px" height="50px">
    <path d="M112.6,19H15.4C10.2,19,6,23.2,6,28.4c0,2.6,1.1,5.1,2.9,6.8L55,79c2.5,2.4,5.7,3.6,9,3.6s6.4-1.2,9-3.6l43-40.9v56.7 c0,3.4-2.8,6.2-6.2,6.2H18.2c-3.4,0-6.2-2.8-6.2-6.2V58c0-1.7-1.3-3-3-3s-3,1.3-3,3v36.8c0,6.7,5.5,12.2,12.2,12.2h91.7 c6.7,0,12.2-5.5,12.2-12.2V28c0-0.1,0-0.3,0-0.4C121.5,22.8,117.5,19,112.6,19z M114.9,30.9L68.8,74.7c-2.7,2.6-6.9,2.6-9.6,0 L13.1,30.9c-0.7-0.6-1.1-1.5-1.1-2.5c0-1.9,1.5-3.4,3.4-3.4h97.2c1.9,0,3.4,1.5,3.4,3.4C116,29.3,115.6,30.2,114.9,30.9z"/>
</svg>