<?xml version="1.0"?>
<svg fill="#000000" xmlns="http://www.w3.org/2000/svg" viewBox="0 0 128 128" width="64px" height="64px">
    <path d="M 14 1 C 6.8 1 1 6.8 1 14 L 1 114 C 1 121.2 6.8 127 14 127 L 57 127 C 58.7 127 60 125.7 60 124 C 60 122.3 58.7 121 57 121 L 14 121 C 10.1 121 7 117.9 7 114 L 7 14 C 7 10.1 10.1 7 14 7 L 65 7 L 65 14 C 65 21.2 70.8 27 78 27 L 87.599609 27 L 88 27 C 89.2 27 90.300781 26.199219 90.800781 25.199219 C 91.000781 24.799219 91.099609 24.4 91.099609 24 L 91.099609 23.599609 C 90.999609 17.599609 88.600391 11.999219 84.400391 7.6992188 C 79.900391 3.3992187 74.2 1 68 1 L 14 1 z M 71 7.3007812 C 74.4 7.9007812 77.5 9.5 80 12 C 82.5 14.5 84.099219 17.6 84.699219 21 L 78 21 C 74.1 21 71 17.9 71 14 L 71 7.3007812 z M 104.10156 13.152344 C 102.71934 13.183789 101.46172 14.199609 101.19922 15.599609 C 100.89922 17.399609 101.99961 18.899219 103.59961 19.199219 L 123.30078 22.699219 L 123.80078 22.699219 C 125.20078 22.699219 126.50078 21.699219 126.80078 20.199219 C 127.10078 18.599219 126.00039 16.999219 124.40039 16.699219 L 104.69922 13.199219 C 104.49922 13.161719 104.29902 13.147852 104.10156 13.152344 z M 88 34 C 86.3 34 85 35.3 85 37 L 85 64 C 85 65.7 86.3 67 88 67 C 89.7 67 91 65.7 91 64 L 91 37 C 90.9 35.3 89.6 34 88 34 z M 123.54297 35.617188 C 123.16328 35.59375 122.77539 35.650781 122.40039 35.800781 L 103.59961 42.599609 C 101.99961 43.199609 101.20078 44.900391 101.80078 46.400391 C 102.20078 47.600391 103.39961 48.400391 104.59961 48.400391 C 104.89961 48.400391 105.29961 48.299219 105.59961 48.199219 L 124.40039 41.400391 C 126.00039 40.800391 126.79922 39.099609 126.19922 37.599609 C 125.74922 36.474609 124.68203 35.6875 123.54297 35.617188 z M 46 40 C 44.3 40 43 41.3 43 43 L 43 43.400391 C 38.3 44.700391 34.900391 48.999609 34.900391 54.099609 C 34.900391 57.699609 36.599609 60.999609 39.599609 63.099609 L 48.900391 69.599609 C 50.300391 70.599609 51.099609 72.100781 51.099609 73.800781 C 51.099609 76.600781 48.8 78.900391 46 78.900391 C 44 78.900391 42.100781 77.700781 41.300781 75.800781 C 40.600781 74.300781 38.900391 73.599219 37.400391 74.199219 C 35.900391 74.899219 35.200781 76.599609 35.800781 78.099609 C 37.200781 81.199609 39.8 83.500391 43 84.400391 L 43 85 C 43 86.7 44.3 88 46 88 C 47.7 88 49 86.7 49 85 L 49 84.599609 C 53.7 83.299609 57.099609 79.000391 57.099609 73.900391 C 57.099609 70.200391 55.300781 66.799219 52.300781 64.699219 L 43 58.300781 C 41.7 57.300781 40.900391 55.799609 40.900391 54.099609 C 40.900391 51.299609 43.2 49 46 49 C 48.1 49 49.899219 50.199609 50.699219 52.099609 C 51.299219 53.599609 53.099609 54.299219 54.599609 53.699219 C 56.099609 53.099219 56.799219 51.300781 56.199219 49.800781 C 54.899219 46.600781 52.2 44.300391 49 43.400391 L 49 43 C 49 41.3 47.7 40 46 40 z M 104 59 C 102.3 59 101 60.3 101 62 L 101 124 C 101 125.7 102.3 127 104 127 L 124 127 C 125.7 127 127 125.7 127 124 L 127 62 C 127 60.3 125.7 59 124 59 L 104 59 z M 107 65 L 121 65 L 121 71 L 118 71 C 116.3 71 115 72.3 115 74 L 115 121 L 107 121 L 107 65 z M 72 89 C 70.3 89 69 90.3 69 92 L 69 124 C 69 125.7 70.3 127 72 127 L 92 127 C 93.7 127 95 125.7 95 124 L 95 92 C 95 90.3 93.7 89 92 89 L 72 89 z M 75 95 L 89 95 L 89 101 L 86 101 C 84.3 101 83 102.3 83 104 L 83 121 L 75 121 L 75 95 z"/>
</svg>