<?xml version="1.0"?>
<svg fill="#000000" xmlns="http://www.w3.org/2000/svg" viewBox="0 0 128 128" width="64px" height="64px">
    <path d="M 22 13 C 14.8 13 9 18.8 9 26 C 9 33.2 14.8 39 22 39 C 29.2 39 35 33.2 35 26 C 35 18.8 29.2 13 22 13 z M 22 19 C 25.9 19 29 22.1 29 26 C 29 29.9 25.9 33 22 33 C 18.1 33 15 29.9 15 26 C 15 22.1 18.1 19 22 19 z M 62 23 C 60.3 23 59 24.3 59 26 C 59 27.7 60.3 29 62 29 L 116 29 C 117.7 29 119 27.7 119 26 C 119 24.3 117.7 23 116 23 L 62 23 z M 22 51 C 14.8 51 9 56.8 9 64 C 9 71.2 14.8 77 22 77 C 29.2 77 35 71.2 35 64 C 35 56.8 29.2 51 22 51 z M 22 57 C 25.9 57 29 60.1 29 64 C 29 67.9 25.9 71 22 71 C 18.1 71 15 67.9 15 64 C 15 60.1 18.1 57 22 57 z M 62 61 C 60.3 61 59 62.3 59 64 C 59 65.7 60.3 67 62 67 L 116 67 C 117.7 67 119 65.7 119 64 C 119 62.3 117.7 61 116 61 L 62 61 z M 44.962891 87.988281 C 44.200391 88.000781 43.450391 88.300391 42.900391 88.900391 L 22 110.59961 L 11.099609 98.900391 C 9.9996094 97.700391 8.1003906 97.599219 6.9003906 98.699219 C 5.7003906 99.799219 5.5992188 101.70039 6.6992188 102.90039 L 19.800781 117 C 20.400781 117.6 21.1 118 22 118 C 22.8 118 23.599219 117.69961 24.199219 117.09961 L 47.199219 93 C 48.299219 91.8 48.299609 89.900781 47.099609 88.800781 C 46.499609 88.250781 45.725391 87.975781 44.962891 87.988281 z M 62 99 C 60.3 99 59 100.3 59 102 C 59 103.7 60.3 105 62 105 L 116 105 C 117.7 105 119 103.7 119 102 C 119 100.3 117.7 99 116 99 L 62 99 z"/>
</svg>