<?xml version="1.0"?>
<svg fill="#000000" xmlns="http://www.w3.org/2000/svg" viewBox="0 0 128 128" width="64px" height="64px">
    <path d="M 14 1 C 6.8 1 1 6.8 1 14 L 1 28 C 1 29.7 2.3 31 4 31 L 111 31 C 112.7 31 114 29.7 114 28 C 114 26.3 112.7 25 111 25 L 7 25 L 7 14 C 7 10.1 10.1 7 14 7 L 114 7 C 117.9 7 121 10.1 121 14 L 121 114 C 121 117.9 117.9 121 114 121 L 39 121 C 37.3 121 36 122.3 36 124 C 36 125.7 37.3 127 39 127 L 114 127 C 121.2 127 127 121.2 127 114 L 127 14 C 127 6.8 121.2 1 114 1 L 14 1 z M 16 13 A 3 3 0 0 0 13 16 A 3 3 0 0 0 16 19 A 3 3 0 0 0 19 16 A 3 3 0 0 0 16 13 z M 26 13 A 3 3 0 0 0 23 16 A 3 3 0 0 0 26 19 A 3 3 0 0 0 29 16 A 3 3 0 0 0 26 13 z M 36 13 A 3 3 0 0 0 33 16 A 3 3 0 0 0 36 19 A 3 3 0 0 0 39 16 A 3 3 0 0 0 36 13 z M 4 38 C 2.3 38 1 39.3 1 41 L 1 89.099609 C 1 90.799609 2.3 92.099609 4 92.099609 C 5.7 92.099609 7 90.799609 7 89.099609 L 7 41 C 7 39.3 5.7 38 4 38 z M 100 41 C 93.9 41 89 45.9 89 52 C 89 55.3 90.500781 58.300781 92.800781 60.300781 L 79.800781 88.199219 C 79.200781 88.099219 78.6 88 78 88 C 75.7 88 73.600781 88.700391 71.800781 89.900391 L 56 76.5 C 56.6 75.1 57 73.6 57 72 C 57 65.9 52.1 61 46 61 C 39.9 61 35 65.9 35 72 C 35 74.4 35.799219 76.7 37.199219 78.5 L 16.099609 105.80078 C 14.799609 105.30078 13.5 105 12 105 C 5.9 105 1 109.9 1 116 C 1 122.1 5.9 127 12 127 C 18.1 127 23 122.1 23 116 C 23 113.6 22.200781 111.3 20.800781 109.5 L 41.900391 82.199219 C 43.200391 82.699219 44.5 83 46 83 C 48.3 83 50.399219 82.299609 52.199219 81.099609 L 68 94.5 C 67.4 95.9 67 97.4 67 99 C 67 105.1 71.9 110 78 110 C 84.1 110 89 105.1 89 99 C 89 95.7 87.499219 92.699219 85.199219 90.699219 L 98.199219 62.800781 C 98.799219 62.900781 99.4 63 100 63 C 106.1 63 111 58.1 111 52 C 111 45.9 106.1 41 100 41 z M 100 47 C 102.8 47 105 49.2 105 52 C 105 54.8 102.8 57 100 57 C 97.2 57 95 54.8 95 52 C 95 49.2 97.2 47 100 47 z M 46 67 C 48.8 67 51 69.2 51 72 C 51 74.8 48.8 77 46 77 C 43.2 77 41 74.8 41 72 C 41 69.2 43.2 67 46 67 z M 78 94 C 80.8 94 83 96.2 83 99 C 83 101.8 80.8 104 78 104 C 75.2 104 73 101.8 73 99 C 73 96.2 75.2 94 78 94 z M 12 111 C 14.8 111 17 113.2 17 116 C 17 118.8 14.8 121 12 121 C 9.2 121 7 118.8 7 116 C 7 113.2 9.2 111 12 111 z"/>
</svg>