<svg fill="#000000" xmlns="http://www.w3.org/2000/svg" viewBox="0 0 128 128" width="64px" height="64px">
    <path d="M 34 1 C 33.2 1 32.400391 1.3003906 31.900391 1.9003906 L 11.900391 21.900391 C 11.300391 22.400391 11 23.2 11 24 L 11 59 C 11 60.7 12.3 62 14 62 C 15.7 62 17 60.7 17 59 L 17 27 L 115 27 L 115 64 C 115 65.7 116.3 67 118 67 C 119.7 67 121 65.7 121 64 L 121 24 C 121 23.2 120.69961 22.400391 120.09961 21.900391 L 100.09961 1.9003906 C 99.599609 1.3003906 98.8 1 98 1 L 34 1 z M 35.199219 7 L 63 7 L 63 21 L 21.199219 21 L 35.199219 7 z M 69 7 L 96.800781 7 L 110.80078 21 L 69 21 L 69 7 z M 62.458984 55.025391 C 60.584961 55.054688 58.724609 55.5625 57.099609 56.5 L 19.5 78.099609 C 14.3 81.099609 11 86.800781 11 92.800781 L 11 121 L 4 121 C 2.3 121 1 122.3 1 124 C 1 125.7 2.3 127 4 127 L 14 127 C 15.7 127 17 125.7 17 124 L 17 92.900391 C 17 89.000391 19.1 85.300391 22.5 83.400391 L 60.099609 61.699219 C 61.299609 60.999219 62.699609 60.799219 64.099609 61.199219 C 65.399609 61.599219 66.499609 62.500781 67.099609 63.800781 C 68.299609 66.100781 67.300391 69.1 64.900391 70.5 L 49.800781 79.199219 C 47.000781 80.799219 45.300781 83.7 45.300781 87 C 45.300781 90.3 47.000781 93.200781 49.800781 94.800781 C 52.100781 96.100781 52.900781 96.499219 53.300781 96.699219 C 54.100781 97.099219 54.899609 97.400781 55.599609 97.800781 C 60.099609 99.900781 63.299609 101.39961 69.099609 102.09961 C 85.399609 104.09961 98.800391 98.6 113.90039 83.5 C 115.30039 82.1 117.49961 81.699219 119.09961 82.699219 C 120.39961 83.399219 120.80039 84.600391 120.90039 85.400391 C 121.10039 86.800391 120.59922 88.099609 119.69922 89.099609 C 113.69922 95.399609 91.600391 116.09961 58.400391 116.09961 C 47.000391 116.09961 34.299609 112.79961 25.599609 110.09961 C 23.999609 109.59961 22.300781 110.5 21.800781 112 C 21.300781 113.6 22.199219 115.30078 23.699219 115.80078 C 32.699219 118.70078 46.100781 122.09961 58.300781 122.09961 C 82.300781 122.09961 106.80039 111.29922 123.90039 93.199219 C 126.10039 90.899219 127.09922 87.7 126.69922 84.5 C 126.29922 81.5 124.6 79 122 77.5 C 118.1 75.2 112.89961 75.899219 109.59961 79.199219 C 95.799609 92.999219 84.200781 97.899609 69.800781 96.099609 C 64.900781 95.499609 62.299609 94.300781 58.099609 92.300781 C 57.399609 92.000781 56.600781 91.599219 55.800781 91.199219 C 55.600781 91.099219 55.000781 90.799609 52.800781 89.599609 C 51.400781 88.799609 51.300781 87.5 51.300781 87 C 51.300781 86.5 51.400781 85.200391 52.800781 84.400391 L 67.900391 75.699219 C 73.000391 72.699219 75.1 66.399219 72.5 61.199219 C 71.1 58.399219 68.800781 56.4 65.800781 55.5 C 64.713281 55.1625 63.583398 55.007812 62.458984 55.025391 z"/>
</svg>