<?xml version="1.0"?>
<svg fill="#ffffff" xmlns="http://www.w3.org/2000/svg" viewBox="0 0 128 128" width="50px" height="50px">
    <path d="M 38 11 C 30.8 11 25 16.8 25 24 L 25 114 C 25 121.2 30.8 127 38 127 L 90 127 C 97.2 127 103 121.2 103 114 L 103 24 C 103 16.8 97.2 11 90 11 L 38 11 z M 38 17 L 90 17 C 93.9 17 97 20.1 97 24 L 97 114 C 97 117.9 93.9 121 90 121 L 38 121 C 34.1 121 31 117.9 31 114 L 31 24 C 31 20.1 34.1 17 38 17 z M 37 23 L 37 30 L 67.599609 41.099609 L 74.099609 23 L 37 23 z M 80.5 23 L 72.199219 46 L 59.5 80.800781 L 91 92.400391 L 91 23 L 80.5 23 z M 37 36.400391 L 37 102 L 45.400391 102 L 52.900391 81.5 L 65.5 46.699219 L 37 36.400391 z M 57.5 86.400391 L 51.800781 102 L 91 102 L 91 98.599609 C 90.7 98.599609 90.3 98.500391 90 98.400391 L 57.5 86.400391 z M 64 109 A 4 4 0 0 0 60 113 A 4 4 0 0 0 64 117 A 4 4 0 0 0 68 113 A 4 4 0 0 0 64 109 z"/>
</svg>