<svg xmlns="http://www.w3.org/2000/svg" viewBox="0 0 292.03 797.94">
    <defs>
        <style>.cls-1{fill:#231f20;}.cls-2{fill:#c7b6ad;stroke:#231f20;}</style>
    </defs>
    <title>Asset 3</title>
    <g id="Layer_2" data-name="Layer 2">
        <g id="_19" data-name="19">
            <path class="cls-1"
                  d="M98,709.14c0,.79-6.59,78-7.38,82.74s.79,6.06,2.63,6.06,2.9-1.32,4.22-10,8.43-75.37,8.43-75.37Z"/>
            <path class="cls-1"
                  d="M127,103.44s-2.57,10.47-4.15,12.45A8.52,8.52,0,0,0,121,124c1,3.55,0,4.54-1.78,6.72s-2.57,6.12-.59,7.51,1.38,2.37.79,4-2.57,1.38-2.18,4.54.2.8.2.8a10.9,10.9,0,0,0-.2,4.94c.6,2.17,1.39,3.35.6,6.91s-.79,4.55,4.74,9.09,11.66,7.12,11.46,9.29-3.36,4.75-8.89,9.29S110.55,193,110.55,193s-1.38-20.16-4.35-25.49-8.89-1.39-9.68,1-1.38,4.75-1.19,10.48,2.18,11.66,1.59,15.22-.8,6.72-.8,6.72-17.19,17-20.15,30.43S68.06,265.51,64.31,273,60,284.48,59.37,288.63s67.41,390.9,67.41,390.9,5.34,44.46-4.74,51-12.45,14.83-19.56,20.16-15.42,7.71-16,15.42,7.71,13.63,23.71,11.86,18.38-11.27,36.17-11.27,25.49-7.11,24.9-15.41-3-10.08-9.49-21.35-5.33-35.57-2.37-46.24,7.71-12.45,11.27-23.13,24.9-139.32,24.9-139.32,10.67,30.82,13,45,5.34,20.76,9.49,26.09,3.56,16,3,20.16,8.9,22.53,1.19,39.72-3.56,24.9-3.56,37.36,0,23.71-3.56,31.42,7.71-9.49,7.71-13,.6,5.33.6,9.48,5.33-7.71,5.33-3,3-4.75,3,3.55v8.3c0,4.75,4.75,0,5.34,4.15s1.78,9.49.6,14.23-1.81,10.12-3.39,15.45S228.74,776.6,250.88,776s23.12-1.77,26.28-4.74,3.95-9.68,7.12-14.82,5.53-18.58,2-25.7-4.94-4.54-4.94-4.54.6-20.36,0-21.74-1.38-16,3.36-2.17,1,2.76,1.39-4,.79-10.47,1.38-7.51.79,3.56.79-5.73,1-11.07,1-10.08-.79-10.28,1.18-5.53,0-9.29,1.19-8.11-.2-5.13-2.17-13.43,6.52-4.16-4-21.15-10.87-20.16-13-23.52a37.17,37.17,0,0,0-5.14-6.13s-1.65-4.48-7.18-13.17-8.7-21.09-9-26.36-.79-23.45-.79-24.5,20-42.69,19.24-55.61-6.33-46.9-5-52.17,3.95-10.54-1.06-24.51-11.06-12.91-11.85-24.24.79-22.93-6.06-31.89S237.17,340,233,335.47s-3.43-4.74-5-8.43-2.9-16.34-2.9-16.34,4.22,1.84,7.64,3.69,8.17.52,10.54-3.69,8.7-21.08,8.7-21.08-1.58,24.24-.79,28.72,4.22,5.53,4.22,21.08,2.37,22.14,2.1,23.45-.26-7.64,0-17.65.79-5.8,2.64,10,.53.79,1.32-9,4.21-3.16,3.95-9.22,2.11,5.27,1.58,9.49,2.64-3.69,1.84-11.07,1.06-6.59,1.32-13.7.53-1.32,1.06-12.92a180.5,180.5,0,0,0-.79-29.25c-1.06-11.06-6.33-34.78-7.65-37.42s-4,.27-4,.27-.26-21.08-8.43-35.58-16.34-20-20.29-23.19-9-6.32-9.75-6.06-3.43-.53-10.28-.53-14-.79-16.6-5.27a14.32,14.32,0,0,1-2.11-8.43l5.27-1s8.17-2.11,9.75-10-1.05-16.86-1.05-17.65a12.07,12.07,0,0,0-3.95-6.59s3.68-20.55-7.12-28.2-17.13-10.54-25-10.27-13.44-.79-18.71-3.43-11.07-4.22-14.5-4S125.71,77,123.6,70.37s-8.7-25-11.6-27.93-5.53-6.86-5.53-10.81S101.2,18.72,95.4,13.71,77,4.49,78,5.28,63.78,1.06,65.36,2.38s-5.8-4.74-1.58-1.32-2.11,5.27-1.32,6.59S59,10.29,61.93,12.4s-.52,2.1.53,3.16-2.9,1-.79,2.37S58,20.57,58,21.36,54,23.2,55.61,24s-3.16,1.32-1.32,1.58-3.16,2.9-1.84,2.9-5.54,1.05-2.37,2.11S44.28,33.48,48,34s-10.28,3.43-3.69,5-3.43,6.06-8.44,7.91,16.34,3.95,7.38,7.9S31.89,64.31,30.05,68s3.69-4.75,10.54-6.59,7.9,1.32,3.69,2.64a16.52,16.52,0,0,0-7.12,5s2.37-3.16,10.54-3.69,8.44,0,.79,2.38a19.6,19.6,0,0,1,8.44.52c4.48,1.32,7.11,2.11,5.27,3.16s-8.43.79-11.86,6.59a21.81,21.81,0,0,1,15-4.74c9.22.53,13.17.53,9,3.16s9,2.64,3.69,6.06S70.1,85.92,62.46,94.88c0,0,12.12-12.65,24.25-12.39s5.53-1.84,14.22-2.63,9.23-1.32,12.65,5,7.65,7.91,9.49,9.49S126.89,98,127,103.44Z"/>
            <path class="cls-2"
                  d="M80,275.77C78.76,277.55,11.17,303.64.5,476.17,2.87,605.42,96.55,713.32,101.88,720.44s7.71,7.11,17.79-5.34S179.55,644,196.15,585.26,215.72,472.61,211,447.71s-9.48-65.81-19-89.53-36.16-77.07-61.66-90.11-2.37-1.19-2.37-1.19-4.37,2.58-8.92,1.79a32,32,0,0,0-8.1-.4c-.79,0-1.39,1.19-1.39,1.19a6.66,6.66,0,0,1-1.18,4.54c-1.58,2.37-3.16,1.19-4.94,1s-6.52-2.57-6.52-2.57.39,6.33-4.35,5.54-6.13-.4-8.3-1.59A6.36,6.36,0,0,0,80,275.77Z"/>
            <path class="cls-1"
                  d="M104.36,306.09a2.5,2.5,0,0,1-2.5,2.5H90.79a2.5,2.5,0,0,1-2.5-2.5h0a2.5,2.5,0,0,1,2.5-2.51h11.07a2.5,2.5,0,0,1,2.5,2.51Z"/>
            <path class="cls-1"
                  d="M105.94,314.39a1.58,1.58,0,0,1-1.58,1.58H90.13a1.58,1.58,0,0,1-1.58-1.58h0a1.58,1.58,0,0,1,1.58-1.58h14.23a1.58,1.58,0,0,1,1.58,1.58Z"/>
            <path class="cls-1"
                  d="M106.47,324.93a2.64,2.64,0,0,1-2.64,2.63H90.92a2.63,2.63,0,0,1-2.63-2.63h0a2.63,2.63,0,0,1,2.63-2.64h12.91a2.64,2.64,0,0,1,2.64,2.64Z"/>
            <path class="cls-1"
                  d="M106.2,335.07a2.5,2.5,0,0,1-2.5,2.51H91.58a2.5,2.5,0,0,1-2.5-2.51h0a2.5,2.5,0,0,1,2.5-2.5H103.7a2.5,2.5,0,0,1,2.5,2.5Z"/>
            <path class="cls-1"
                  d="M107.79,344.69a2.64,2.64,0,0,1-2.64,2.64H92.5a2.64,2.64,0,0,1-2.63-2.64h0a2.63,2.63,0,0,1,2.63-2.63h12.65a2.64,2.64,0,0,1,2.64,2.63Z"/>
            <path class="cls-1"
                  d="M109.63,354.57a2,2,0,0,1-2,2H92.37a2,2,0,0,1-2-2h0a2,2,0,0,1,2-2h15.28a2,2,0,0,1,2,2Z"/>
            <path class="cls-1"
                  d="M136.25,306.09a2.25,2.25,0,0,1-2.24,2.24H120a2.24,2.24,0,0,1-2.24-2.24h0a2.24,2.24,0,0,1,2.24-2.24h14a2.24,2.24,0,0,1,2.24,2.24Z"/>
            <path class="cls-1"
                  d="M137.56,314.12A1.57,1.57,0,0,1,136,315.7H120.17a1.58,1.58,0,0,1-1.58-1.58h0a1.58,1.58,0,0,1,1.58-1.58H136a1.58,1.58,0,0,1,1.58,1.58Z"/>
            <path class="cls-1"
                  d="M137.83,324.53a3,3,0,0,1-3,3H120.3a3,3,0,0,1-3-3h0a3,3,0,0,1,3-3h14.5a3,3,0,0,1,3,3Z"/>
            <path class="cls-1"
                  d="M136.25,334.55a2.51,2.51,0,0,1-2.51,2.5H120.57a2.5,2.5,0,0,1-2.51-2.5h0a2.51,2.51,0,0,1,2.51-2.51h13.17a2.51,2.51,0,0,1,2.51,2.51Z"/>
            <path class="cls-1"
                  d="M135.72,344.69a2.9,2.9,0,0,1-2.9,2.9H122a2.9,2.9,0,0,1-2.9-2.9h0a2.9,2.9,0,0,1,2.9-2.9h10.8a2.9,2.9,0,0,1,2.9,2.9Z"/>
            <path class="cls-1"
                  d="M138.09,355.63a2.77,2.77,0,0,1-2.77,2.77H122.15a2.77,2.77,0,0,1-2.77-2.77h0a2.77,2.77,0,0,1,2.77-2.77h13.17a2.77,2.77,0,0,1,2.77,2.77Z"/>
            <path class="cls-1"
                  d="M107,382.64a2.64,2.64,0,0,1-2.64,2.63H92.77a2.64,2.64,0,0,1-2.64-2.63h0A2.64,2.64,0,0,1,92.77,380h11.59a2.64,2.64,0,0,1,2.64,2.64Z"/>
            <path class="cls-1"
                  d="M107.79,391.86a3.16,3.16,0,0,1-3.16,3.16H93a3.15,3.15,0,0,1-3.16-3.16h0A3.15,3.15,0,0,1,93,388.7h11.6a3.16,3.16,0,0,1,3.16,3.16Z"/>
            <path class="cls-1"
                  d="M109.89,400.43a1.71,1.71,0,0,1-1.71,1.71H92.64a1.72,1.72,0,0,1-1.72-1.71h0a1.72,1.72,0,0,1,1.72-1.72h15.54a1.71,1.71,0,0,1,1.71,1.72Z"/>
            <path class="cls-1"
                  d="M138.62,382.24a2.51,2.51,0,0,1-2.51,2.51H122.68a2.51,2.51,0,0,1-2.51-2.51h0a2.5,2.5,0,0,1,2.51-2.5h13.43a2.5,2.5,0,0,1,2.51,2.5Z"/>
            <path class="cls-1"
                  d="M136.77,391.2a1.45,1.45,0,0,1-1.45,1.45h-15a1.45,1.45,0,0,1-1.45-1.45h0a1.45,1.45,0,0,1,1.45-1.45h15a1.45,1.45,0,0,1,1.45,1.45Z"/>
            <path class="cls-1"
                  d="M137,400.82a2.12,2.12,0,0,1-2.11,2.11H121.22a2.11,2.11,0,0,1-2.1-2.11h0a2.11,2.11,0,0,1,2.1-2.11h13.71a2.12,2.12,0,0,1,2.11,2.11Z"/>
            <path class="cls-1"
                  d="M110.42,419.79a2.38,2.38,0,0,1-2.37,2.38H93.29a2.38,2.38,0,0,1-2.37-2.38h0a2.37,2.37,0,0,1,2.37-2.37h14.76a2.37,2.37,0,0,1,2.37,2.37Z"/>
            <path class="cls-1"
                  d="M108.84,429.94a2.77,2.77,0,0,1-2.77,2.77H94.21a2.77,2.77,0,0,1-2.76-2.77h0a2.77,2.77,0,0,1,2.76-2.77h11.86a2.77,2.77,0,0,1,2.77,2.77Z"/>
            <path class="cls-1"
                  d="M110.16,439.69a2.24,2.24,0,0,1-2.24,2.24H93.69a2.24,2.24,0,0,1-2.24-2.24h0a2.24,2.24,0,0,1,2.24-2.24h14.23a2.24,2.24,0,0,1,2.24,2.24Z"/>
            <path class="cls-1"
                  d="M110.16,449a2.11,2.11,0,0,1-2.11,2.11H95.14A2.1,2.1,0,0,1,93,449h0a2.1,2.1,0,0,1,2.11-2.1h12.91a2.11,2.11,0,0,1,2.11,2.1Z"/>
            <path class="cls-1"
                  d="M109.1,459.06a1.84,1.84,0,0,1-1.84,1.84H94.61a1.84,1.84,0,0,1-1.84-1.84h0a1.84,1.84,0,0,1,1.84-1.85h12.65a1.84,1.84,0,0,1,1.84,1.85Z"/>
            <path class="cls-1"
                  d="M139.93,418.87a2.49,2.49,0,0,1-2.5,2.5H122.15a2.49,2.49,0,0,1-2.5-2.5h0a2.49,2.49,0,0,1,2.5-2.5h15.28a2.49,2.49,0,0,1,2.5,2.5Z"/>
            <path class="cls-1"
                  d="M137.56,428.89a2.24,2.24,0,0,1-2.24,2.24H122.68a2.24,2.24,0,0,1-2.24-2.24h0a2.24,2.24,0,0,1,2.24-2.24h12.64a2.24,2.24,0,0,1,2.24,2.24Z"/>
            <path class="cls-1" d="M138.35,438.9a3,3,0,0,1-3,3H124a3,3,0,0,1-3-3h0a3,3,0,0,1,3-3h11.33a3,3,0,0,1,3,3Z"/>
            <path class="cls-1"
                  d="M138.88,449a2.37,2.37,0,0,1-2.37,2.38H124.39A2.37,2.37,0,0,1,122,449h0a2.38,2.38,0,0,1,2.37-2.37h12.12a2.38,2.38,0,0,1,2.37,2.37Z"/>
            <path class="cls-1"
                  d="M138.62,458a2.89,2.89,0,0,1-2.9,2.89h-11.6a2.89,2.89,0,0,1-2.89-2.89h0a2.89,2.89,0,0,1,2.89-2.9h11.6a2.9,2.9,0,0,1,2.9,2.9Z"/>
            <path class="cls-1"
                  d="M108.31,499.51a2.77,2.77,0,0,1-2.76,2.77H93.42a2.77,2.77,0,0,1-2.76-2.77h0a2.77,2.77,0,0,1,2.76-2.77h12.13a2.77,2.77,0,0,1,2.76,2.77Z"/>
            <path class="cls-1"
                  d="M135.46,499.9a3.17,3.17,0,0,1-3.17,3.17H121.75a3.17,3.17,0,0,1-3.16-3.17h0a3.17,3.17,0,0,1,3.16-3.16h10.54a3.17,3.17,0,0,1,3.17,3.16Z"/>
            <path class="cls-1"
                  d="M109.1,508.34a1.58,1.58,0,0,1-1.58,1.58h-14A1.58,1.58,0,0,1,92,508.34h0a1.57,1.57,0,0,1,1.58-1.58h14a1.57,1.57,0,0,1,1.58,1.58Z"/>
            <path class="cls-1"
                  d="M108.58,519a2.5,2.5,0,0,1-2.51,2.5H95.53A2.5,2.5,0,0,1,93,519h0a2.5,2.5,0,0,1,2.5-2.5h10.54a2.5,2.5,0,0,1,2.51,2.5Z"/>
            <path class="cls-1"
                  d="M108.31,527.05a2.63,2.63,0,0,1-2.63,2.63H93.56a2.64,2.64,0,0,1-2.64-2.63h0a2.64,2.64,0,0,1,2.64-2.64h12.12a2.64,2.64,0,0,1,2.63,2.64Z"/>
            <path class="cls-1"
                  d="M105.94,537.32a2.38,2.38,0,0,1-2.37,2.38H91.71a2.38,2.38,0,0,1-2.37-2.38h0A2.37,2.37,0,0,1,91.71,535h11.86a2.37,2.37,0,0,1,2.37,2.37Z"/>
            <path class="cls-1"
                  d="M138.88,509a1.45,1.45,0,0,1-1.45,1.46H120.3a1.45,1.45,0,0,1-1.45-1.46h0a1.44,1.44,0,0,1,1.45-1.44h17.13a1.44,1.44,0,0,1,1.45,1.44Z"/>
            <path class="cls-1"
                  d="M136.77,517.82a2.1,2.1,0,0,1-2.1,2.11H119.91a2.1,2.1,0,0,1-2.11-2.11h0a2.1,2.1,0,0,1,2.11-2.1h14.76a2.1,2.1,0,0,1,2.1,2.1Z"/>
            <path class="cls-1"
                  d="M137.3,527.71a1.72,1.72,0,0,1-1.71,1.71H119.78a1.72,1.72,0,0,1-1.72-1.71h0a1.72,1.72,0,0,1,1.72-1.72h15.81a1.72,1.72,0,0,1,1.71,1.72Z"/>
            <path class="cls-1"
                  d="M137,537.85a2.12,2.12,0,0,1-2.11,2.11H120.7a2.11,2.11,0,0,1-2.11-2.11h0a2.11,2.11,0,0,1,2.11-2.11h14.23a2.12,2.12,0,0,1,2.11,2.11Z"/>
            <path class="cls-1"
                  d="M106.73,557.09a2.37,2.37,0,0,1-2.37,2.37H92.5a2.37,2.37,0,0,1-2.37-2.37h0a2.37,2.37,0,0,1,2.37-2.37h11.86a2.37,2.37,0,0,1,2.37,2.37Z"/>
            <path class="cls-1"
                  d="M105.68,567.23a2.24,2.24,0,0,1-2.24,2.24H92.11a2.24,2.24,0,0,1-2.24-2.24h0A2.24,2.24,0,0,1,92.11,565h11.33a2.24,2.24,0,0,1,2.24,2.24Z"/>
            <path class="cls-1"
                  d="M111.74,575a2.64,2.64,0,0,1-2.64,2.63H92.77A2.64,2.64,0,0,1,90.13,575h0a2.64,2.64,0,0,1,2.64-2.64H109.1a2.64,2.64,0,0,1,2.64,2.64Z"/>
            <path class="cls-1"
                  d="M135.72,557.48a2.77,2.77,0,0,1-2.77,2.77H120.57a2.77,2.77,0,0,1-2.77-2.77h0a2.76,2.76,0,0,1,2.77-2.76H133a2.76,2.76,0,0,1,2.77,2.76Z"/>
            <path class="cls-1"
                  d="M134.93,566.57a1.32,1.32,0,0,1-1.32,1.32h-15a1.32,1.32,0,0,1-1.32-1.32h0a1.32,1.32,0,0,1,1.32-1.31h15a1.32,1.32,0,0,1,1.32,1.31Z"/>
            <path class="cls-1"
                  d="M137.83,575a2.11,2.11,0,0,1-2.11,2.1H120.43a2.1,2.1,0,0,1-2.1-2.1h0a2.1,2.1,0,0,1,2.1-2.11h15.29a2.11,2.11,0,0,1,2.11,2.11Z"/>
            <path class="cls-1"
                  d="M107.79,601.49a2.5,2.5,0,0,1-2.51,2.5h-14a2.5,2.5,0,0,1-2.51-2.5h0a2.5,2.5,0,0,1,2.51-2.5h14a2.5,2.5,0,0,1,2.51,2.5Z"/>
            <path class="cls-1"
                  d="M106.47,610.84a1.85,1.85,0,0,1-1.85,1.85h-14a1.85,1.85,0,0,1-1.85-1.85h0A1.85,1.85,0,0,1,90.66,609h14a1.85,1.85,0,0,1,1.85,1.84Z"/>
            <path class="cls-1"
                  d="M105.42,619.28a1.59,1.59,0,0,1-1.59,1.58H90.92a1.58,1.58,0,0,1-1.58-1.58h0a1.58,1.58,0,0,1,1.58-1.58h12.91a1.58,1.58,0,0,1,1.59,1.58Z"/>
            <path class="cls-1"
                  d="M104.1,629a1.59,1.59,0,0,1-1.59,1.58H90.66A1.58,1.58,0,0,1,89.08,629h0a1.57,1.57,0,0,1,1.58-1.58h11.85A1.58,1.58,0,0,1,104.1,629Z"/>
            <path class="cls-1"
                  d="M103,636.41a1.84,1.84,0,0,1-1.84,1.84H90.92a1.84,1.84,0,0,1-1.84-1.84h0a1.84,1.84,0,0,1,1.84-1.85H101.2a1.84,1.84,0,0,1,1.84,1.85Z"/>
            <path class="cls-1"
                  d="M102.78,645.76a1.71,1.71,0,0,1-1.71,1.71H90.26a1.71,1.71,0,0,1-1.71-1.71h0a1.71,1.71,0,0,1,1.71-1.71h10.81a1.71,1.71,0,0,1,1.71,1.71Z"/>
            <path class="cls-1"
                  d="M135.46,600.7a2,2,0,0,1-2,2H117.93a2,2,0,0,1-2-2h0a2,2,0,0,1,2-2h15.55a2,2,0,0,1,2,2Z"/>
            <path class="cls-1"
                  d="M134.67,609.4a2.51,2.51,0,0,1-2.51,2.5H117.67a2.5,2.5,0,0,1-2.51-2.5h0a2.51,2.51,0,0,1,2.51-2.51h14.49a2.51,2.51,0,0,1,2.51,2.51Z"/>
            <path class="cls-1"
                  d="M134.93,619.15a2,2,0,0,1-2,2H116.61a2,2,0,0,1-2-2h0a2,2,0,0,1,2-2H133a2,2,0,0,1,2,2Z"/>
            <path class="cls-1"
                  d="M134.93,628.11a2,2,0,0,1-2,2H117.14a2,2,0,0,1-2-2h0a2,2,0,0,1,2-2H133a2,2,0,0,1,2,2Z"/>
            <path class="cls-1"
                  d="M135.46,635.48a1.72,1.72,0,0,1-1.72,1.72H116.61a1.72,1.72,0,0,1-1.71-1.72h0a1.72,1.72,0,0,1,1.71-1.71h17.13a1.72,1.72,0,0,1,1.72,1.71Z"/>
            <path class="cls-1"
                  d="M134.67,645a2.77,2.77,0,0,1-2.77,2.77h-15a2.77,2.77,0,0,1-2.77-2.77h0a2.77,2.77,0,0,1,2.77-2.77h15a2.77,2.77,0,0,1,2.77,2.77Z"/>
        </g>
    </g>
</svg>