<svg xmlns="http://www.w3.org/2000/svg" viewBox="0 0 214.07 570.3">
    <defs>
        <style>.cls-1{fill:#231f20;}</style>
    </defs>
    <title>Asset 6</title>
    <g id="Layer_2" data-name="Layer 2">
        <g id="_11" data-name="11">
            <path class="cls-1"
                  d="M130.09,478.88c-.09-.33,0-.07,0,0ZM194.3,168.53a.83.83,0,0,1,0,.22A.42.42,0,0,0,194.3,168.53ZM121.13,462.16c-.12-.47-.31.41,0,0Zm91.66,99.5a37.39,37.39,0,0,1-4.23-3.62c-1.51-1.51-3.62-.3-9.95-2.86a82.46,82.46,0,0,1-15.7-8.6c-5.28-3.47-12.67-7.1-15.09-11.63s-5-17.8-5.73-20.37-.61-3.46-.15-3.92,5.13-4.53,6.48-3.77,3.17-4.07,4.08-3.93,1.05-2,2-2,0-1.66,2.41-2.56,2.72-1.51,2.72-1.51,1.66-3,2.11-3.17,5-8.15,5.29-9.51-4.68-10.26-3.48-8.75-.45-2.26.16-1.81-.61-6.34-.61-6.34L182,464.18s.76-2,1.06-2-.15-3.62-.15-3.62l-.45-3.92-4.38-3.47a2.56,2.56,0,0,1,.76-2.57c1.2-.9-5.44-3.62-3.78-4.68s-1.2-2.86-.6-3.92-2.87-2-2.87-2.87-1.81-.75-.6-2.11-.91-2.11-.91-2.11l-3.16-2.87s-9.21-7.24-8.76-7.24-.9-1.81-.9-1.81l-3.62-.91.15-17.35a29.59,29.59,0,0,1,3.92-.61c2-.15,2.72,3.47,1.36-6s-4.08-12.38-1.51-18,4.22-7.7,3.32-18.26.45-11.92-.6-20.82-4.53-24-4.68-31.09-1.36-22-1.36-26.26,1.21-.6,1.21-8.9.75-7.09-2-14-6.94-14.64-6.48-17.05.75-.15.15-4.83-1.36-1.36-1.36-8.45,1.81-11.77-2.26-12.23c0,0-.76-9.05.9-15.39s3.47-11.92,3.47-13,.76,2.12,1.21,5.89,2.71,8.6,1.66,12.53,0,13,2.41,22.78,6.34,21.43,9.21,32.6,6.79,22.18,6.19,25.5a23.12,23.12,0,0,0-.46,7.69,15.62,15.62,0,0,1-1.66,7.7c-.9,1.66-6.34,6.79-5.58,13.13s2.19,8.6,2.79,12.82.53,9.51.76,12.38.37,4.6,2.26,4.9a2.63,2.63,0,0,0,2.05-.5c-.88.9-2.32,2.35-3.71,3.6-2.19,2-3.1,1.28-3.1,2.49a2,2,0,0,0,1,1.73s-1.59,3.47.15,3.92,6.18-1.35,8.15-2.33,4.67-2.12,6.41-3.78,4.75-1.66,5.43-6.26,4.53-12.45,3.62-19.31-4.75-22.34-4.45-25.73,2.19-6.42,1.28-9-3.09-11.92-2.79-16.37.34-41.8.23-49.73a53.43,53.43,0,0,0-4.19-20.82c-2.72-6.45-3.51-8.6-3.51-8.6S175,192.19,176,193s-2.94-3.74,2-2,2.82-.9,4.64.23,1.47-1.93,1.92-1.7-3.39-3.4.11-6.11,4-4.42,3.28-8,2-2.49,2.5-2.49,3.52-2.56,3.81-4.08c-.11.38-.68,1.19-3.25,1.93-3.51,1-5.32,2.49-3.06-1.13s-2.14-5.43.12-7.24,5.77-1,4.19,2.83c0,0,2.49-2.72,0-4.76s-4.31.34-6.45-2.83-1.14-2.15-5.1-5-5.88-3.5-8.49-3.5-4.52-1.81-4.07-3.51,5.88-16.19.45-29-10.86-15.27-14.26-17-22.29-8.83-27.27-11.32-3.29-1.47-5.89-4.53-5.88-5.2-5.2-7.92,4.07-5.66,5.2-8.83,1.25-7.81,2.15-10.41a21.26,21.26,0,0,0,1.47-9.05,27,27,0,0,1,.57-8.6,45.63,45.63,0,0,0,.79-5.44s2.83-.9,4.08-.56a3.56,3.56,0,0,0,2.26-.12,2.35,2.35,0,0,0,1.36-1l1.58-2s-.22-2.26-.34-2.94,0-2.27-.45-2.27.11-2.83-.79-2.15-1.36-.11-1.59.23-.79-.12-.79-.12-1.58-1-1.92-.67.56-.57-.91,0-1.81-.12-2.15.22-.9-.34-.9-.34l-.57-.11s-5-18.79-18.9-21S76.37,2.05,72.53,23.1c0,0-1.36-1.13-1.48-.22s-.22.56-.79,1.47-1.69.11-1.81.9.23-.45-.11.79.45-.22-.34,1.25-.68,1.7-.68,2.26-.34-.34,0,.57,1.13,1.13,1.36,1.47l.22.34s-1.58-.11,0,.9a14.65,14.65,0,0,0,2.72,1.36l.91.46-.23,1.58s-1.47-1.58-2,1.13a50.81,50.81,0,0,0-.45,9.39c0,3.17,1.58,2.49,1.92,4.19s1.59,3.74,3.4,3.28,1.58-1.58,2-1.58,1,5.77,1,11.32S76.71,75.05,74,78.9s-2,3.73-8,8.15-10.41,6.11-16.29,8.6-18.11,5.43-19.81,11.77-4.64,8.82-4.64,23.2.34,18.9.34,18.9-10,3.85-12.45,7.13-6.57,8.6-6.57,9.62-.79,12.45-1,13.81,1,5.2,1.58,7.35,1,6.68,3.17,9.51,1.7,1.81,2.72,3.28a3.78,3.78,0,0,0,2.6,1.59,61.76,61.76,0,0,0-3.85,15.61C11.18,224.89,9.71,242,9,250S7.79,274.58,7,280.8s-2.61,11.77-2.49,14.26,1.7,7.25,1,10.64-2.49,16.07-3.4,18-.79,4.86-.23,7.46,2,7.7,2.61,11.44,1.92,5.54,4.64,6.56a57.51,57.51,0,0,1,8.94,4.64c3.17,1.92,5.2,2.49,5.54,1.13a3.21,3.21,0,0,0-.79-2.6s5.55.45,5.55-2.72-5-3.39-5-3.39l-.12-1.47s2-.8,1.93-4.3a74.13,74.13,0,0,1,1.58-18.11c1.7-7.47.23-13-2.15-17.32s-5.09-6-3.39-16.18,6.9-30.33,9-35.77,7.13-18.56,9.28-25.12a55.17,55.17,0,0,0,2.83-17.43c0-5.09-.68-9.28.23-12.79s-.57-4.53.9-7.24.57-.79,3.51-2.49c1.6-.92,2-1.9,2-2.6.79,3.11,3.16,12.7,2.91,16.22a54.12,54.12,0,0,1-1.51,11.31c-1.21,5-3.92,14.94-4.23,18.57s-2.71,7.69-4.67,14-1.51,8.75-1.21,13.88-.6,23.09-2,32.14-2.42,9.21-3.17,17.51,1.66,15.69-.3,22.78-3.17,21.89-4.38,26.71,0,5.89,0,5.89.45,2.72,1.66-4.53.3-11.62,1.21-14.94S37,359.31,34.42,366.7,26.88,389,26.88,389.64,29,390.7,30.5,386s2.72-12.38,4.38-15.24,3.92.15,3.92.15a252.68,252.68,0,0,1-.6,25.65c-1.06,13.73-3.47,20.82-3.47,20.82s-11.62,2.27-13.58,6.8-5.74,13.58-5.74,13.58-3.17,5.43-3.47,6.94-1.81.45-.91,2.56-2,.76-2.86,4.38S7,455.13,7.11,456.19s-.3.75-.15,2-.9,2.11-1.06,2.86a9.93,9.93,0,0,1-.45,2,14.23,14.23,0,0,1-1.36,3.77,23.43,23.43,0,0,0-2,6c-.3,1.67,2.42-.3.45,4.23s-3,8-2.41,9.36.91,10.41.91,10.41a27.62,27.62,0,0,1,1,3.32c.6,2.26-.3,1.36.6,3.47s-.75,1.06,1.67,3,2.56,0,3.31,2,1.06-1.81,3.17,1.51-.6,2.26,5.29,3.62,6-.45,7.54,1.21,3.92,1.66,4.53,2.11,2.56-.45,3.77.45,2.57-1.2,3.62.91S34.12,536.92,31,541.75s-5.58,9.66-12.82,13.43S7.56,560.31,5.6,562.27s-1.36,4.22-.9,4.53.6,2.11,2.71,2.11c0,0,2.12.3,3,.3a16,16,0,0,0,3.62.15c2.87-.15,7.85,1.81,11,.45s7.85-1,9.81-1.81,3.62-2.56,8.45-3.77,12.37,2.42,15.39-1.05,1.06-9.06.6-11.17-5.88-8.9-4.07-26.71,2.56-22.34,2.56-22.79,3.78-9.35,4.08-8.15.9-6.79,1-6,.46-5,.61-4.08.75-3.32,1-2.71,2.57-4.23,2.57-3.77.75-3.63,1.06-2.57,1.35-4.53,1.51-3.92,1.5-4.08,1.5-4.08.3-10.71.76-9.05,2.56-.3,2.87,2.56.9-1.81-1.21-4.82.75-1.82.9-3.17,1.36-3.32-.3-7.25a24.15,24.15,0,0,1-2-10.26c0-3.32-2.56-6.34-2.56-9.51s-2-10.86-.91-13.58,4.07-10,4.07-10,4.38-.3,6-2.71,1.81-2.87,1.81.15-.15,2.11,1.66,3,1.06.9,1.81,2.11,4.08,0,3.93,0a13.91,13.91,0,0,1,1.5-3.77c.46-.46,2,.9-.9,4.37s1,5.13,2.26,2.27.76-4.08,1.66-4.83.15-3,2.87,2.71,3,8.3,4.38,6.49,3.77,3.17,2.11-2.87-3.32-11.16-.61-11.77,4.23,3.17,5.29,4.23-1.36,7.39-1.36,8.15-3.77,6.79,4.22,18.86S120.29,444,120.29,444s2.56,14.49,1.36,17.21a6.1,6.1,0,0,1-.52,1,5.41,5.41,0,0,1,.06,1c0,2.72,1.66,1.05,2.42,2.87a16.46,16.46,0,0,0,.75,1.8c1.21,2.72.75.91,2.11,3.33s1.51,0,1.51,1.81,0,.3.61,2.41,1.35,1.36,1.51,3c0,.5,0,.56,0,.51.06.23.19.76.46,1.9.9,3.93,3.32,9.51,4.83,19.17s6.33,32.14,6,38.48.3,8.3-1.2,12.52-2.87,13.73,7.69,12.53,21-2.42,25.2-1.06,9.36,4.53,13,4.53a69.88,69.88,0,0,1,7.85.15c3.92.3,9.81-1.36,12.22-1.36s3.92,2.11,5.89,1.36A3.13,3.13,0,0,0,212.79,561.66Zm-39.24-234c.91.15,0,.45,0,3.92a21.86,21.86,0,0,1-.45,5.13l-1.51.15a43,43,0,0,0,.15-6.79,17.82,17.82,0,0,1-.3-2.86S172.65,327.47,173.55,327.62ZM18.88,343.2c-.26-.11-1.92-.83-3.17-1.47s-.64-1.44-.71-3.77a13.74,13.74,0,0,0-1-4.42s.26-1.13.64-3.36a15.85,15.85,0,0,0,.26-3.54c.68,1.13,2.6-.57,2.6-.57s0,.23,0,2,.11,6.26-.07,7.88.34,2.49,1.17,4.08S19.15,343.31,18.88,343.2Z"/>
        </g>
    </g>
</svg>