<svg xmlns="http://www.w3.org/2000/svg" viewBox="0 0 383.42 671.78">
    <defs>
        <style>.cls-1{fill:#231f20;}</style>
    </defs>
    <title>Asset 2</title>
    <g id="Layer_2" data-name="Layer 2">
        <g id="_9" data-name="9">
            <path class="cls-1"
                  d="M221.23.88,122.3,96s-2.89-3.21-5.27-2-5.86,3.8-8.46,3.9-2.72-.43-5.54-.65-5,.11-5.75,1.2-2.6,2.82-3.68,4.88a17.5,17.5,0,0,0-1.2,2.49S83.62,111.7,80.25,113s-6.4,3.91-10.3,6.4S64.6,123.67,63,128s-.58,5.49-3.33,5.93-3.18,1.59-4.63,3.61-1.59,3.47-2.6,5.5-2.32,6.51-3.47,7.38a1.32,1.32,0,0,0-.44,1.87s-11.86,6.08-18.94,12.44-13.89,12.59-17.07,17.79-7.09,9-7.23,13.74.43,5.64,2,9.11-3.18.73-4.77-.57-.14,2,1.59,3.32-.87,3.62-2.6,3.62-1.74.43,2.31,2.75,5.06,2.89,2.46,5.06-3.9,4.48-3.18,6.07,3.76-.43-1.16,3.18.58.58,3.33-1.15-.87,1.15,1.73,6.07-2.45-3.9,1.74-6.07.43,5.93,1.74,7.66-.29-.72,1.3-3.47.86,3,2.17,5.06,7.81.15,4.19,2a27.56,27.56,0,0,1-7.81,2.46s6.8.72,9-1,1.73,2.31,3.76,3.61.14,0,3,1.3-1.16-.43-1.88-3.61,4.62,2,4.91,2.45,3,0,1.88,2.32-.14,1.88,2.46-1,4.77,0,2.32,1.88,2.31,1.44,2.6-1-.58,1.16,3.47,1,.58-4.2,4.48-1.45,2.46.87.73-1.16,1.3-.86,2.31-1.73,3.33-1,5.5-3.33,4.05-3.76,4.19-5.35,1.88-1.3,4.48,0,2-2,1.6,4.63-3,19.67-3,19.67-3.47-.44-4,4.77S56.21,275,56.21,280.3s2.6,6.22,2.6,11-1.3,43.68-2.17,54.53-3.83,25-2.75,29.36,2.17,7.38,1.74,9.11S46.52,393,45,402.52s-1.52,23.64.87,49.24,16.27,74,19.31,88.73,9.54,24.3,12.36,25.6,25.82,9.33,37.32,14.76,11.71,4.33,19.3,5a71.23,71.23,0,0,0,10,.44s-4.12,5.57-6.72,7.52-5.5,4.63-4.34,10.41,4.56,10.42,10.34,10.63,19.24,1.23,22.13,2.32,11.42,6.58,17.64,9.62,5.72,2.31,9.12,3.11,6,1.84,4.44,3-1.73,1.52,1.41,1.09-2.49,1.3,1,1.3,1.52,0,2.39,1.84.32-.54.86,1.85,1.41,2.06,2.39,2.38,2.71,5.75,2.93,3.91,2.17,2.93,1.95,1.19,2.06,1,2.06,1,3.58,7.81,3.69,10.95,5.53,7.7,10.2,10.63,7.48,3,11.06,2.5,4.67-.55,7.59-1,6.3-1,6.3-1,5-.22,4.88-1.52c0,0,1.95,1.73,4.66-.22s.33-.54.33-.54,6.4-.55,6.94-2.06c0,0,1.41,2.06,4.77.65s.76-4.12-1.3-5.53-5.86-5.21-9.33-6.73-6-5.53-9.87-8.9a13.34,13.34,0,0,1-4.45-7.81c-.11-.32,4.23.44,2.93-2.38s-2.93-4.67-2.49-5,3.14-5.53,4.77-6.18,1.84-5.1,2.49-5.21,0-5.43.76-5.32-3.47-6.18-.54-4.33-2.28-8.57.65-4.56-2.28-7.81.54-3.58.44-6.29,1.63-3.47-2.38-12.8-2.28-12.26-2.17-5.86-.86-4.66-1.09-4.23,0-3-1.74-5.1-.33-3.58-4-5.75-2.28-4.45-4.77-5.85-2.93-4.66-1.62-3.69-1-2.93-5.32-4.56-4.77-4.12-.76-12.48-.76-12.48-3.15-4.12-2.5-3.47-5.75-2.38-3.9-1.73.5-4.59,3.32-3.15,3.11-1.37,4-.94.43-3.4,1.08-2.89,0-2.32.58-2-.86-3.54.15-3,.87-2.39,1.23-2,.5-3.54.94-3,.58-2.82.58-2.82-2-5-1.74-4.77.22-2.46.22-2.1-2.61-1.3-2.61-1.3-.86-.29-.57-.22,4.84-9.55,2.24-15.69S234.83,471.5,230.2,466a50.86,50.86,0,0,1-6.22-8.68s12,5.93,14.75.87,3-12.3-4.77-17.5-21.12-24.44-27.63-28.21-7.37.15-15.18-7.23S178,397.89,173.36,393.4a22,22,0,0,0-11.14-5.93c-1.3-.14-3.32-2.17-3.32-2.17s.57-5.64-1.31-8.24-2.16-4.19-1.59-6.36,3.19-19.24,4.05-26.91S162.22,333,162.22,333s5.64-3.62,7.38-6.66a15.89,15.89,0,0,1,3.76-5.06c2-2,3.9-3.47,6.36-2.17s-.14-2,5.21.87,4.92,1.74,6.65,2.46l1.74.72c1.73.73-3.62-2.46,2-1.88s2.9-2.74,4.2-2.46-1.3-4.34,0-3.76-1.74-3.32,1.59-1.59,1.59-1.44,1.59-1.44,11,4.48,13.74,6.21,9.83,2.18,16.49,1.45,20.68-2.75,32.83-9.69,17.64-10.85,17.64-10.85,15.48,34.28,21.41,41.51,5.49,5.36,12.44,13.16,5.64,7.53,5.64,7.53l.14,35.29a21.69,21.69,0,0,0,4.05,1.3c1.74.29,4.34-.15,4-1.74s-.29-29.79-.29-29.79,2.46,4.05,9.11.14S356,352.91,366.3,336s18.51-51.77,16.92-69.27-16.06-51.64-24-66.1-16.06-20.83-21.12-25.89-8.1-7.81-8.1-7.81l-.57-5.35s3-1.3,9.25-.14.29-1.59-3.76-1.59,6.37-3.62,7.67-5.93c0,0-1.16.86-5.5,1.59a66.8,66.8,0,0,0,5.35-5.21,13,13,0,0,0,2.75-5.5,5.68,5.68,0,0,1-3.62,4.49c-3.32,1.3,2-3.91,4.34-6.37s0-3.9,5.5-4.19S348.22,136,345,139s.29-2.32,1.44-4.34.58-5.5,1.59-10.56-.29-5.49-1.44-1.73.72-10.71-.73-6.08.58-6.22-.43-2.89-1.3-7.52-1.3-2.17,0-4.2-.29-1,1-18.37-.58-15.91.14-10.7-.58-7.67-3.18-6.51-3.18-6.51-.29-4.33-1.3-1.88-2.46-1-4.49.73-8.1-1.3-6.07,1.3-3-5.79-2.75-.72-7.23,2.31-6.07,4.19-2.46-3.47-2.46-3.47a4.62,4.62,0,0,0-.29,4.92c1.45,2.74-4.63,3-4.77,2.17s-1.16,12.15-3.47,8.24-4.34-6.22-2.46-1.59.86,9.54-.58,5.21-1.59-1.45.58,3.32.86,7.38-.73,3.91-6.5-13.31-3-5.5,3.18,10,3.9,10.85-1.73,3-1.59,5.78,0,4.2.58,5.93-3.47,4-4.48,1-.73,3,2.45,3.61-1.88,2.31-2.31,2-.29,2.6,4.77,2.46.58,4.19-1.73,6.07,2.75,0,4.77-2.89.29,2.75-1.3,6.22-2.46,4.19-2.46,9.54,1.73-6.36,3.62-5.06-.58,2-.58,4.92,3.47-.29,3.32,4.19.87,2.46.58,4.63,1.16,5.21-.58,6.36,2.17.87,2.61-4.05,3.61-1.59,5.49-2.6,2.75,3.18,2.75,3.18l-.58,4.2a28.52,28.52,0,0,0-7.37,8.24c-3.19,5.35-6.66,2.89-12.3,10.56s-14.89,32.4-18.22,43.68-4.48,39.48-3,46.13c0,0-11.13,3.62-16.92,5.35s-11.57,3.91-17.5,3.91-5.64-.43-10.85.29-9.4,2.46-12.44.43-4.62-6.36-4.62-6.36,4.62.72,10.41-4.34,6.22-8.39,6.22-8.39-1.3-2.6-3-2.31.15-2.75-2-2.32-1.16-1.73-2.32-.72,0-1.16-1.73-.58-1.88-1.3-3-.87-.15-2.16-2.17-1.88-2.31-1.88-2.89-1.3-1.88-.43-2.61-.43.15-1-1.15-.87-.58-2.6-3.18-2.31-2.75-2.9-4.92-2.75-2.32-1.88-3-1.16-.29-2.89-1.73-1.16-3.91-.28-5.36.29,0-1.3-2.74-.14-4.34.29-5.21,1.45a23,23,0,0,0-1.45,2.16l-4.34-3.32s1.45-5.21,4.63-6.08,5.21-.86,4.77-5.2c0,0,3-1.16,3.77-2.46s.43-1.16.14-4.2-1.59-4.19-.29-4.34,6.07,0,4.92-4.19-2.75-6.8-1.45-10.41,1.45-3.62,3.33-5.79,3.76-1.88,3.32-4.19a13.47,13.47,0,0,1,.29-7.52c1-2.61,4.34-4.92,5.93-5.93s16.35-7.81,32.69-5.5c0,0-4.19-2.31-19.81,0,0,0-.58-1.88,4.91-2.46s16.2-1.15,20.11,1.3c0,0-5.5-4.77-20.25-3,0,0-7.23-.44-1.16-2.61s10.13-3.32,14.75-1.88c0,0-3.61-2.89-13.3.44s5.78-5.21,16.63-4.49c0,0-9.54-1.44-16.78,1s-9.4,1.3-3.18-2.61,18.51-2.74,18.51-2.74-8.38-2.46-16.19-1.16,0-2.46,3.76-2.46-4.63-1.45-11.57,3.76-7.09,3-6.22,1.59.57-3.47,3-3.33c0,0-2.46-1.3-4.62,2s-1.16,4.92-3.62,4.92-4.77-.58-8.24-3-5.07-6.8-15.34-8.39-22.41-6.65-32.1-2.31-10,7.81-14.76,13.88-4.48,5.64-6.07,12.73,1.88,8-2,13.31-5.07,5.92-7.81,8.82-4.49,2-5.79,2.74l-1.3.73s-3-3.18-11.57-6.22S85.42,198.59,82,198.59,78.19,197,78.19,197s1.88-6.95-.14-9.12-.44-5.64.87-7.08-10.85-5.64-7.67-4.2-3.9-2.46,4.19-.29,1.31-2.75,5.65-1.73-3.33-1,2.31-.44-3-3,.87-1.59-5.5-1.59-1.16-1.44-.72-4.34,2.46-3.76-2.32-3.76,2.6-2.9-4-3.9,4.49-2-.87-1.45,3.47-.44-4.78-1,2.17-1.15-4.2-2.61,1-2.75-13.16-2.31-2.75-2.31-1.88-2.61,5.06-2.46-5.35-1.88,4.63-2,.58-2.31,3.76-2.46-5.35-2.6.87-3,1.59-1.45,5.35-1.74-2.89-2.75,1-2.89-3.61-1.74,1.3-1.88-1.59-1.88.15-2.61-2-5.49.29-6.21-.87-3.19-.29-3.48,1.16-4.77,2.17-6.5,3.61-4,6.22-6.22,7.23-8.68,6.51-11.14a3.14,3.14,0,0,0-3.33-2.17L229,5.36S227.88-2.59,221.23.88Z"/>
        </g>
    </g>
</svg>