<svg xmlns="http://www.w3.org/2000/svg" viewBox="0 0 520.76 554.64">
    <defs>
        <style>.cls-1{fill:#231f20;}</style>
    </defs>
    <title>Asset 1</title>
    <g id="Layer_2" data-name="Layer 2">
        <g id="_10" data-name="10">
            <path class="cls-1"
                  d="M422.11,417c-.78-.05-.88.05-.59.23C422.79,417.15,423.39,417.07,422.11,417Zm98.5,96.76c-.87-3.47-3.91-5.86-3.69-8.46s.44-6.29-3.9-8-13.24-5.2-14.76-8.24-4.12-6.07-5.2-9.11-3.69-8-2.61-7.16-8.46-15.84-5.2-14.54-6.08-5.85-2.61-5-2.17-1.73-.43-1.52-2.39-6.29-2.39-6.29-4.12-3.25-3.25-3-4.12-1.74-2.82-2.61-3-3.9-2.82-4.55-15.84-.87-15-1.09-8-1.08-5-2.17-3.47-2.17-2-3-4.34-1.74-3.91-2-6.07-.21-4.77-.21-8.46-1.74-5.64-3.69-8.46-3.26-7.38-3.47c.84-.17-4.8-1.76-5.8-2.38-2.18.12-6.35.21-6.35.21s-2.82-3-12.8-5.64-13.88-2.61-13.88-2.61a20.28,20.28,0,0,0-.87-9.54c-1.73-5.64.65-6.29,3-5.64s9.76,4.12,13,5,14.53,5.2,24.08,4.12,21-6.73,29.28-4.56,21.91,2.82,19.31-3.68-11.71-14.11-22.56-11.94-19.53.44-35.15,2.61-17.57,2.82-21.47-1.74-6.3-8-4.78-14.32-1.95-19.52-.86-33.41,3.25-24.51-2-38.61-10.84-25.39-16.92-32.76-.21-10.2-9.33-12.59l-9.11-2.38s-11.5-15.62-18.22-25.17-5.64-6.07-9.33-14.53S321.45,197.88,316,189s-11.28-10.41-16.27-14.31-10.2-5.43-11.93-8.25-5.21-5-13-6.29-12.8-2.39-18.87-3a29.37,29.37,0,0,1-9.77-2.6s2.17-4.34,2.17-6.94,1.09-4.12,2.61-8.68,5.2-12.58.86-23.86-13.88-17.79-21.26-19.1S206,97,199.53,100s-8,5.2-8,5.2L188,103.07s-1.95-2.17,5.42-3.25c0,0-3.25-1.52-6.07,0L282,5s-1.52-5.42-5.43-5L180,96.35s-1.73-1.81,1.16-9c0,0-3.18,4.34-3,8.68,0,0-2.31-4-1-7.23a12.56,12.56,0,0,0-1.3,4.77c-.29,3-1-4-1.16-4.48s0,2.16-.14,4.62.58,7.38-.58,5.06-2.75-5.35-2.17-7.8-1,0-.14,5.78-2.17,1.45-2.17-1-1.45.29-.73,5.06-2.17.72-2.75-.58-.28,3.33,1.16,4.63,1,2.17,1,2.17l-22.41,23s-3.47-4.63-4.92-4.92-4.05,1.3-4.19,2.31a10.29,10.29,0,0,0,.14,2.61,5,5,0,0,0-3.47.28c-1.59.87-2.6,4.05-2.6,4.05s-3.62.58-4,2,.14,5.78.14,5.78-5.06-3-5.79-.14-1.59-5.64-3.61-2.31-1.16-2.17-1.74,1.88,0,1.3-3,3.9-2.75,0-6.37,2.89-4.34,1.74-4.34,2.75-.43-1.73-.57,1.3c-.12,2.34-.83,3.05-1,3.19-.85.12-7.43,1.48-4.26,1.87,3.47.44-7.81,2.61-4.05,3s-7.67-.29-3.91.58-3.47,1.16-2.74,3a3.84,3.84,0,0,0,3.76,2.6c1.68.14-11.73,8-11.76,8.51-.73-.05-4.82,0-5.31,3.06-.58,3.62-1.59,8-.29,8.1s-5.35,1.59-2.31,2.75-6.66,2.6.72,4.48-1.74,2.32,3.18,2.32,1.45.14,3,.14,6.07-.29,5.78,2.6.73-.57,1,5.07,3.9,3,2.6,5.06-.72,1,.72,2.17,5.21-6.37,4.2-2.61-.15-.43,1.15,1.31,5.21-5.93,5.93-2.61,1.88,1.88,2.32,2.61,3.32-4.92,3.76-3.76.43-1.74,2.31-2.75,1.45-7.52,2.61-5.93,2.6-1.88,3-1.59,1.16-2,1.3-.87.87-1.45,1.31-.72.43-6.8,1.44-3.33,2.75,5.79,2.32,1.88-2-4.19.14-6.36,2.89-4.2,4-3.33,3.18-3.33,3.76-2.46,1.3-.72,2.46-.29,1.45-1.15,1.59-.72,1.3-1.3,1.3-1.3-3.32,13,.15,24.44,11.71,17.64,16.63,18.95,13.6,1,18.22-1a143.71,143.71,0,0,1,15.77-5.2,15.33,15.33,0,0,0,6.94-4.2,6.93,6.93,0,0,1,3,2.75c1,1.88.43-.29,2,1.45s3.47,1.16,3.62,1.44.72-.57.72-.57l2.17-.58,1.59-2.9s11.72,9.12,12.15,10.85-.29,6.94,1.59,11l-3,4.05s-2.17,1.16-1.15,1.3-.44,1-.58,1.88a6.32,6.32,0,0,1-.58,2.46c-.43.58-1.59,1.74-1.88,2.17s.43.58-.15,1.59-2.89,3.33-2.45,3.33,1.88-.14,1.3.87a11.32,11.32,0,0,0-1.16,2.31c-.29.87,1,2.46.44,3.33s.86.87.43,1.59.58-.58.43.58-.29,0,0,2.17,1.16,1.15,2,2.31.29.72.87,1.16.29-.15.57.43-.86-.29.58,1.16.29.58,1.45,1.45.87.72,1.16.86-1.31-1.15.29.15,2,.29,2.16,1,1.16,1.16,1.16,1.16l-.29,7.66s-11.42,2.9-22.41,4.92-16.06,4.63-38.62,1.59-26.9-3.61-28.49-5.06-3.47-3-3.47-3S100.31,236,85.85,226.44s-21-14.6-20.83-16.77.44-4.2.44-4.2-3.18-6.22-2.17-5.64.29-2.75.58-2.6-7.67-5.21-5.93-4.49-1.45-1.73.29-1.59-9.7-17.35-9-18.65-3.47-6.95-1.59-8.39-1.3-1.59-1.88.72-4.63-2.17-7.38-7.81-7.81-5.06-9.26-9.26-9.83-12.14-5.06-5.06-1.15.44-.14,4.2-4.51-3.78-3.34-1.32c-.31-.28-.62-.25-.71.74-.29,3-4.34-1.16-3.33,1.59s-1.73-.29-1.16,2-.14-2.6.58,2.32-9.25,1.15-5.06,4.05-4.77-1.3-2.75.87c.75.79-.15.79-1.37.56a.46.46,0,0,0-.21,0c-2.07-.42-4.77-1.37-2-.23a7.69,7.69,0,0,0,1.56.52,2.67,2.67,0,0,0-.41,1.51C5.58,163.24,2.54,162.23,4,164s-3.62,0-1.59,2.75-3.91,2-2,3.91-.87,1.59,1.16,3-2.6-.14-.14,2.32,1.59,2,3,3.47,1.74,5.35,2.46,7.95S3.7,193,7.17,193.9s-.43,1,2.89,2,1.59,1,2,1,.14-.15,2.46,1,2.17.58,1.59,1.74-1.74.58-.29,1.88.58.86,4,1.59-3.62,7.08-1.74,6.36,1.16,1.88,2.61,1.16-1-2.46,3.18-.14.87,2.16,3.47,3.76,1,.72,2.6,1.59,2.32,2.31,4.49,3.18-7.38-1.3-2.46.58,6.36,2,6.36,2a214.59,214.59,0,0,0,7.81,34.71c5.93,18.95,22.13,64.51,32,78.1S93.66,361,112.61,374.11s18.8,11.86,30.66,14.61,16.2-.58,16.2-.58l11,18.8s-7.52,2.61-8.24,1.16-1,3.9-1.74,5.93,0,.87-.43,3.47-3.48,3.76,0,3.91.72,1.15,1.73,3,5.06-.58,4.05,3.33-4.92,9.54-3.61,8.68-.29,6.22,1.44,5.2-.29.44.15.73-1.74,3.32-.15,3.61-.14,3,.58,2.46,1-.29,1-.29,1.45,3.62-.58,8.68-.14,1.59-.43,5.06.14,1.3.29,3.76.58,2.17.58,3.18.72-2,0,1,2.17.86.72,3,2.17,5.21.58,9.84.14,1.59-.15,6.51,2.9,6.65,2,8.68-1-1-.87,2,2.17,0,2.75,3.33,3.18-.87,3,1.73,1.88-1.44,2.6,1.3.72-1,3.18,2,5.64-2.9,6.37-.58,2.45-1.16,2.31.43,5.21,7.81-2,14.32-14.89,13.6-20.39,17.5-5.06,5.79-10.41,6.51-8.25,1.45-10.13,2.89-1.73,5.07,1.74,5.21,11.28-.29,16.05-1.88,7.09,0,13.16-2.6,11.14-5.07,16.78-5.07,9,.87,15.91,0,15.19-1.44,17.79-3,3-4.49,1.16-9.26-5.06-18.8-5.21-22.56-.87-12.73-1-22.71-1.88-24.59.87-35.58,4.77-25,2.31-39.48-4-19.67-1.3-22.13,15-8.24,15.48-8.39,1,1.74,3,.58,4.49-1.73,9.4-2.75,8.75-1.59,8.75-1.59-5.42,8.9-9.76,11.5a55.93,55.93,0,0,1-5.42,3l8.24,2.17s3,0,6.08-3.69,9.76-12.37,6.94-6.08-6.94,16.27-6.94,16.27L269.39,407l5.85-8.25s10-28.85,14.1-31,9.12-5.43,9.12-5.43-3,26.9-5.43,35.8-2.36,20.19-2.36,20.19h11.06s1.95-10.42,5.86-26l3.9-15.62A28.44,28.44,0,0,1,326,392c4.55,11.5,2.82,17.36,8.24,24.09s6.94,10.84,16.27,16.48,20.18,10.63,23.22,10.85l3,.22s-5.42,7.16-5,9.54,4.34,4.34,5.21,9.77.87,1.95,1.95,5,3.69.65,3.69,4.12-4.55-3,0,3.47,4.77,4.34,5.86,6.94a9.52,9.52,0,0,1,.35.91c0-.1.24,0,1.82,2.35,3,4.55,3.47,2.6,5.86,5.42s1.73.43,4.12,3,2.82.86,6.51,3.47,6.07,1.52,7.81,3.25,2.82-.22,4.34,1.52,7.59-1.52,8.67-.22-1.08-3,3,.44,1.3.21,5,2.6.87-1.3,4.12,1.52,2.82-2.39,6.73,1.74,3.9.86,5,2.82,1.08-.44,2.6.43.87-1.52,2.39-.43,3.9-3.26,3.9-3.26a4.7,4.7,0,0,1,3.26-1.52c1.95,0-1.74-2.38-.22-1.73s8.89.43,9.54,1.51,4.13,3,5.43,3.69,5.42,5.86,9.11,12.59,6.29,10.41,12.37,11.93a9.29,9.29,0,0,0,9.54-3.26s4.34-.43,4.56-2.38c0,0,2.82-.87,2.82-2.82a5.48,5.48,0,0,0,1.3-3.69C518.22,520.48,521.48,517.22,520.61,513.75Zm-371-377,5.06-3.32a12,12,0,0,1-1.73,6.22c-1.88,3-1,4.33-1.74,2.16S149.63,136.77,149.63,136.77Zm35.51,29.87a4.4,4.4,0,0,0,.94,1.88L182.61,170s-2.39-2.46-1.88-1.81-3.76-3.76-3.11-2.46.36.22-.87.43-3.47-1.66-3.54-1.08-.29-.58-1.31.21-3.68-.65-3.9.22-1.3-.14-.94.65-3.4-.94-2.6.08-.73.5-.51,1.08-3.9-1.23-3.47-.43-.07.57-.29,1-1.95-.29-1.88.79-.65.87-.72,1.59-1,.65-1,1.31-.86.21-.94.86-.57.22-1,.65-2.38-.14-2.38-.14-1.52-3.83-.58-5.06,3.4-2.24,4.26-7a23.9,23.9,0,0,1,2.75-8c.94-2,.29-7.16.44-9.62a55.17,55.17,0,0,1,1.8-9c.58-2,1.6-2.46,2.61-3.54s1.08-3-.8-3.26a6.66,6.66,0,0,0-3,.22l13.74-14.17s3,2.17,6.5,4.77,4.05,3,4.05,3-2.31,6.94-2.89,8.82,1.16,3.18,2,3.76,2.17,2.31.14,6.51-3.33,8-2.53,10,1.74,2.38,2.75,2.31,1.88-.65,1.37.72-1.3,2-.79,3.84a3.25,3.25,0,0,0,2.6,2.17l.72,3.83S184.63,165.12,185.14,166.64Zm72.75,125a6.55,6.55,0,0,0-1.74,1.52s-8.89,13.45-13.23,16.7-17.36,12.15-26,19.53a213.06,213.06,0,0,0-19.3,18.22c-4.34,4.77-7.16,6.08-12.37,10.2a20.78,20.78,0,0,0-8,17.35c.44,6.73,3,11.07,3,16.27s4.34,18.44,4.34,18.44l-1.08-.65-28.42-42.3s-3.26-27.34-9.55-43.17-7.59-18.44-7.59-18.44,20,5.85,34.93,8.24,21.26,2.39,28.85,2.39h18.87c7,0,11.61.65,16-6s6.4-7.16,8.78-10.85,6.73-10.3,6.73-10.3c0,.87.43-.87.87,0s.87-1.52,1.95-.22,0,1.3,1.09,1.3S258.76,291.17,257.89,291.6Zm131,191.82c0,.05.05.14,0,0Z"/>
        </g>
    </g>
</svg>