<svg xmlns="http://www.w3.org/2000/svg" viewBox="0 0 338.45 636.83">
    <defs>
        <style>.cls-1,.cls-2{fill:#231f20;}.cls-2{stroke:#fff;}.cls-3{fill:#fff;}</style>
    </defs>
    <title>Asset 5</title>
    <g id="Layer_2" data-name="Layer 2">
        <g id="_6" data-name="6">
            <path class="cls-1"
                  d="M268.07,258.47a7.7,7.7,0,0,1,2.86-2.51c1.47-.52,2.07-1.9,2.33-3.63a19.73,19.73,0,0,1,.95-3.37c.35-1.3,1-4.15.17-4.93a3.19,3.19,0,0,0-1.81-.87s.08-4.58-1.13-5.62-1.81-.95-1.81-.95.52-3.54-.69-4.49-.61-4.76-1.91-6.4-3-1.3-5-1.38a13.43,13.43,0,0,0-3.81.43s-18-62.89-23.28-77.42-13.2-40.78-15.19-45.36-3.46-7.18-3.46-7.18S211.78,81.22,211.7,81s.69-6.14-.69-9.86S188.35,4.61,183.74,0c0,0,4.61,23.75,9.92,42.89S203.22,75,205.82,78.8l2.59,3.8,4.15,14.53a103.27,103.27,0,0,0,2.6,12.28c1.72,6,31.81,104.79,31.81,104.79s-2.59-1-2.59,4.15,0,4.84-1.56,8.65-2.59,6.74-2.24,9.16,2.07,6.23.52,6.4-17.3-.69-21.62-3.46a160,160,0,0,0-16.95-10c-9.34-4.84-12.28-3.28-14.18-5.88S169,199.33,166.74,192.06s-7.61-22.82-13.32-29.05-8.3-7.43-8.3-7.43,5-13.49,7.95-20.93,4.67-13,2.25-15.21-4.84.51-6,4.66-10.55,28.54-10.55,28.54S127,148.49,123.33,145s-7.78-4-7.78-7.61,2.07-9.17,2.94-14.35.86-6.23,2.25-8.48,3.46-8,3.46-10.55a20.72,20.72,0,0,1,.69-5s5.88,2.77,5.19-3.8-1.39-7.44-1.39-8.82,3.63-4.67,5.19-6.58,3.8-9.16,3.8-9.16.18-2.59-.52-2.77-.69-2.07-1.21-2.07-.34-1.73-.34-1.73l-.87-2.25s.35-1-.51-.69,0-.52-1.56-.87-1.56-1.73-2.08-1.73-.86-1.72-1.9-2.07-2.76-3.46-2.76-2.59S123,52.69,122.64,53s-4.5-1.9-4.5-1.9-1.21-1.21-1.9-1S113,48.88,113,48.88L110.53,48c.52.51.52-5.37-.86-11.42s-1.21-1.21-1.73,2.77-.69,2.42-1.73,4.32-.86.87-2.42,2.08-2.59.34-3.28.69-2.08-1.38-1.56,0-.35-1.21-1.21,0-1.56-1.21-2.42.35-5,0-5.54,1.72-.34.18-.52,1.73-2.42.18-3.11,1.56S83.9,51.48,83,53.2s-3.11,1.21-3.63,2.25-1.9-.34-2.25,1.21-2.59-.17-2.59,1-.52-.52-1.91,1.38S64.88,61,67.82,62s.52.69.52,1.56.35-.69,0,.86-1.56,1.73-1.73,2.43-.52,2.94.35,3.63,1.21-.35,2.07.34-1.9,1.56-1.21,2.42-1.73.69,0,1.21,4.67,1.39,3.81,1.91.34.34,0,1.38-1.39,1-1,2.07.69,1.21.86,1.91S73,83,72.66,83.47a1.45,1.45,0,0,0,.52,2.24c1.21.7-.34.35,1.21.7s2.42,1.9,3.12,2.42-4,1.38-2.25,2.07.52,1.9.52,6.75,1.55,6.39,3.63,4.84a54.7,54.7,0,0,1,1.21,7.43,96.56,96.56,0,0,1,.86,10.9c0,3.46-4.84,6.17-7.26,7.49,0,0-4.5,3.58-13,5.54s-10.37.23-16.25,3S31.68,151,28,158.17a29.88,29.88,0,0,0-3.57,17.76c.46,5.3-.35,17.4-3.12,24.09s-2.88,18.79-5.76,24.09-2.31,8.65-2.54,14.53,2.65,17.41,4,23.4,11,23.87,15.33,31.59L38.25,304s-10,26.74-10,37.46S26.15,362.92,23.73,375,13,420.33,17.15,433.82,31,482.58,29.61,487.08s-11.42,31.13-15.22,45.31S1.59,581.5.55,585.3s-1,11.76,3.81,5.19,11.41-37,14.52-48.42,13.49-51.88,18.68-56.37,3.11,7.26,1,13.83-1.39,2.42.69,13.83,0,11.42,3.11,14.53,3.11.69,6.92,4.5,10.37,4.15,10.72,5.53l.35,1.38,2.76-1L64.42,542s-1,8.41-2.42,11.06-3,5.77-3.11,10,.23,7.84-2.42,13.72S47.24,595.45,44.59,598s-2.54,7.15-3.8,13.15-1.5,10,.92,11.18,2.54-.12,2.54-.12,2.76,3.81,5,4.38a2.9,2.9,0,0,0,3.23-1s.12,5.53,2.77,5.65,3.34-1.27,3.34-1.27,1,6.91,5.3,6.91S68,629.92,68,629.92s1.39-1.73,1.73-.58,3.23,6,8.54,5.77,6.34-6.12,6.34-7.84-1.39-11.07-.81-14.88-2.31-11.52-.46-18.21,1.27-11.76,1.61-18.1,2.77-14.41,1.73-17.64-2.88-7.38-1.27-9.11,5-6.68,5.54-5,3.57-2.89,3.8-2.08,1-3.57,1.38-3,.7-3.45,1.39-2.53,1.15-3.58,1.73-2.54.8-2.88,1.27-2.19,2.42-29,3.11-26.63-.69-11.76.69-8.3,0-7.26,1-4.5,1.38-7.95,2.42-5.88-1-7.61,0-6.91,2.42-6.23,3.11-4.15,1.38-1,1.38-1l1.39-5.88.34-6.57s2.94,3.46,6.92,3.46,9.34-2.08,13.32-1.91,10,.87,10.2-2.24-.87-3.29-2.42-3.29-3.29-1.9-4.5-1.9-1.38-1-2.77-1-4,.87-6.91.69-5.36-.52-5.36-.52a43.57,43.57,0,0,0,1-4.84c.51-3.11,3.63-4,4.14-2.94s1-1.38,1.73-.69,1.39-1.38,1.39-1.38l.86-1.73s.35-8.82.35-14.7.69-6.4,1.21-4.15,4.67,2.76,1.9,6.05-.86,7.26.69,4.32,2.6,2.25,4.67,2.43-4.67-2.94-2.42-7.09a58.11,58.11,0,0,0,4.32-10.9c.87-2.77,2.77-1.56,4.15,0s1.39,1,.87-5.88,9-21.27,9-21.27-4.15,14.18-3.46,18.33,1.21,1.9,1.73-1.38.17-4.5,1-8.48,2.59-9.68,1.56-2.24-1.39,12.1-1,13.83,2.42,2.08,3.8-5a164.92,164.92,0,0,0,2.77-24.21c.35-8.65,2.94-29.23,3.63-42s6.05-12.79,4-27.84-5.88-20.75-11.42-30.78-7.43-11.07-7.43-11.58,2.77-37.7,2.25-49.12c0,0,11.41,10.73,13.83,15.22s7.78,9.69,15.05,14.7,23.51,8.47,33.72,8.82,22.3-.87,27.49-.35,9,1.56,12.45,1.56a15.34,15.34,0,0,0,5.19-.69l71.07,239s2.08,1.38,3.81.86,2.07-2.94,2.07-2.94ZM57.45,273.86a19.73,19.73,0,0,1-8.65,10.72l.17-2.07s-.69-4.85-2.94-16.43-6.57-17.12-6.74-23,0-10.55,2.59-15.74,6.06-19.71,6.06-19.71c-.18-1.9,1.9.52,2.07,4.32s2.59,11.41,6.23,20.23,7.95,26.12,7.95,26.12A148.65,148.65,0,0,0,57.45,273.86Z"/>
            <path class="cls-2"
                  d="M128.2,163.9c-6.13,5.3-29.57,24.38-42.54,49.29S67.51,250.54,59.72,263.5s-11.93,20.24-18.15,31.65-13,21.79-15,37.87-7.64,59.87-10.87,74.86S14.27,430,18.19,445s7.61,31.36,9,37.58,7.38,12,12.22,6.46,20.06-24.44,25.37-30.9S97.51,419,104,406.27s24.67-50.27,30.67-66.64,17.06-60.64,17.75-68.71,5.08-33.2,2.77-56.49S138.37,155.11,128.2,163.9Z"/>
            <path class="cls-3"
                  d="M24.69,426.18c.93-.11,11.63,4.9,13.08,5.4s1.87-.21-.61-1.54a102.83,102.83,0,0,0-10.7-5C24.11,424.27,24.69,426.18,24.69,426.18Z"/>
            <path class="cls-3"
                  d="M47.39,436.12s3.87,2.56,12.18,5.13,9,1,10.05,1.8-1.24-.67-5.77-2-6-3.85-10.33-5S47.39,436.12,47.39,436.12Z"/>
            <path class="cls-3" d="M26.37,421.69s7.69,5.49,10.47,5.54S31.57,423.8,26.37,421.69Z"/>
            <path class="cls-3"
                  d="M46,430.43s8.36,6.29,14.26,6.8,8.87.4,8,.13-9.45-2.3-13.74-4.15A52.27,52.27,0,0,0,46,430.43Z"/>
            <path class="cls-3" d="M27.16,416.93s9.7,5,12.34,6S35.69,418.41,27.16,416.93Z"/>
            <path class="cls-3" d="M49.91,425.57S52.34,429,60,431.64s8.75,1.75,8.75,1.75S62,429.09,56,427.33Z"/>
            <path class="cls-3" d="M26.5,410.19s9.83,3.57,13.37,5.61,4.91.42,1.33-1.12A103,103,0,0,0,26.5,410.19Z"/>
            <path class="cls-3" d="M51.59,420.52s9.39,5.76,14,6.41.89-1.66-4.43-3.1A79.64,79.64,0,0,1,51.59,420.52Z"/>
            <path class="cls-3" d="M51.43,416.55S68.2,423,70,422.36s-5-2.17-11.49-4.46S51.43,416.55,51.43,416.55Z"/>
            <path class="cls-3" d="M53.84,410.88s8.25,6.56,15.78,6.38S58.38,412,53.84,410.88Z"/>
            <path class="cls-3"
                  d="M55.61,405.47c.44.16,10.56,4.44,16,5.83s4,.35-.08-1.3-6.54-3.72-10.76-5.29S51.65,404,55.61,405.47Z"/>
            <path class="cls-3"
                  d="M58,399.55s.61.52,9.16,4.6,9.6,4.91,10.43,3.86-2.49-2.34-6.94-4.58-7.41-3.33-9.82-4.38S54.08,397.36,58,399.55Z"/>
            <path class="cls-3"
                  d="M65.28,396.65a47.58,47.58,0,0,0,11,5.13c4.53,1.32,6,1.44-1.83-2.39S56.61,391.64,65.28,396.65Z"/>
            <path class="cls-3"
                  d="M63.49,390.47s2.16.74,8.67,3.81,7.4,3.52,8.85,2.81-.26-1.33-6.63-3.82S59.07,386.84,63.49,390.47Z"/>
            <path class="cls-3" d="M27.94,405.68s12.91,5.19,14.72,5.72S36.78,406.44,27.94,405.68Z"/>
            <path class="cls-3" d="M31.3,401.15s8,1.77,11.33,4.13C42.63,405.28,35.47,404.47,31.3,401.15Z"/>
            <path class="cls-3"
                  d="M33.22,396.11a27,27,0,0,1,9.18,1.17c4,1.45,4.87,3.76,4.87,3.76S34.83,396.81,33.22,396.11Z"/>
            <path class="cls-3" d="M36.24,391.18s11.67,4.53,14.25,4.76S39.79,390.93,36.24,391.18Z"/>
            <path class="cls-3"
                  d="M36.92,385.49s7.54,2.87,10.66,3.33a11.58,11.58,0,0,1,5,1.92S40.18,388.55,36.92,385.49Z"/>
            <path class="cls-3" d="M39.47,379.58s8,1.44,11.77,3.43L55,385S41.72,381.45,39.47,379.58Z"/>
            <path class="cls-3" d="M44,374.41s18.34,6.78,14.83,6.66S42.7,376.52,44,374.41Z"/>
            <path class="cls-3" d="M43.45,370.09s16.18,3.81,16.82,5S46.74,372.79,43.45,370.09Z"/>
            <path class="cls-3" d="M47.21,365.22s18.37,6.41,14.18,5.49S50,369.73,47.21,365.22Z"/>
            <path class="cls-3" d="M48.36,362.54s10.23,4,12.64,4.06-6.52-6.13-12.17-5.13S48.36,362.54,48.36,362.54Z"/>
            <path class="cls-3"
                  d="M48.94,355.91s7.74,2.71,11.16,3.93l3.42,1.22A61.85,61.85,0,0,0,55.77,357,18.57,18.57,0,0,0,48.94,355.91Z"/>
            <path class="cls-3"
                  d="M50.56,350s4,.84,8.23,2.07,10.65,3.45,8.28,4.42-7-2.21-9.75-3.19S49.14,349.93,50.56,350Z"/>
            <path class="cls-3"
                  d="M53.6,344.93c-.38.09-1.22,1.93,1,2.49a63.91,63.91,0,0,1,7.93,2.67c3.89,1.51,6.48.81,2.07-1.06S53.6,344.93,53.6,344.93Z"/>
            <path class="cls-3" d="M54.2,341.46s7.21,1.8,12,3.32,6.69,3.36,2.64,2.33S55.43,343.05,54.2,341.46Z"/>
            <path class="cls-3"
                  d="M56.38,338.49c.35.05,6.56,1.31,10.56,2.27s5.7,2,1.83,1.77a20.91,20.91,0,0,1-8.19-1.88C57.48,339.39,53.93,338.15,56.38,338.49Z"/>
            <path class="cls-3"
                  d="M55.56,331.43c1.65.27,8.92,1.39,11.17,2.45s7.67,2.89,4.76,3.63-3.47.07-7.61-.66-5.35-1.08-7.06-2S54,331.17,55.56,331.43Z"/>
            <path class="cls-3"
                  d="M57.85,325.07c-1.28.39-3,1.35,2.35,2.8s7.4,1.75,11.26,2.83,1.85-1.32-3-2.73S57.85,325.07,57.85,325.07Z"/>
            <path class="cls-3"
                  d="M59.36,320.38l16.77,6.39a54.9,54.9,0,0,1-10.21-2.12A16.25,16.25,0,0,1,59.36,320.38Z"/>
            <path class="cls-3" d="M84.85,330.37s18.53,7.42,19.57,8.37-9.28-2.9-13.82-4.78S84.85,330.37,84.85,330.37Z"/>
            <path class="cls-3"
                  d="M83.58,336.45c.67,1.32,6.28,1.78,11,5.53s8,2.42,8,2.42-7.45-4-11.39-5.69S82.21,333.73,83.58,336.45Z"/>
            <path class="cls-3"
                  d="M81.64,341.72s1.48.13,8.46,3.82,9.57,3.8,9.57,3.8.11-2.84-5-4-9.36-3.28-11.64-4.09S79.16,340.4,81.64,341.72Z"/>
            <path class="cls-3"
                  d="M79.26,347.83a37.63,37.63,0,0,1,10.5,3c4.39,2.23,8.79,4.22,5.79,1.73s-3.36-2.64-8.5-4.69S75.84,347.28,79.26,347.83Z"/>
            <path class="cls-3"
                  d="M78,351.18s.55,2.27,4.71,4.24a58.13,58.13,0,0,0,11.91,3.87c1.83.28-.76-1.18-6-3.61s-7.66-2.88-9.15-4.37S78,351.18,78,351.18Z"/>
            <path class="cls-3"
                  d="M75.89,356.81c8,3.05,12.1,6,16,6.82s2.37-.16-2-2.64-8.54-2.84-11.74-4.48S75.89,356.81,75.89,356.81Z"/>
            <path class="cls-3"
                  d="M74.86,360.19s-3.13.35,5.19,4.28,13.27,3.87,13.27,3.87-2.12-1.18-6.53-3.17S74.86,360.19,74.86,360.19Z"/>
            <path class="cls-3"
                  d="M73,364.72s-2,.08,3.83,2.93A88.13,88.13,0,0,0,90,372.75c2.16.68,1.18.59-5.44-2.95S74.14,365.57,73,364.72Z"/>
            <path class="cls-3"
                  d="M70.06,369.92s-2.72,1.37,3.74,3.91,10.75,4.39,13,5.2-1.26-2.58-6-5A74,74,0,0,0,70.06,369.92Z"/>
            <path class="cls-3" d="M67.74,375.28s14,7.15,16.68,7.38S68.81,374.38,67.74,375.28Z"/>
            <path class="cls-3" d="M67.18,381.67s12.9,3.95,15.38,5.28-8.26-6-11.73-7.44S63.92,380.77,67.18,381.67Z"/>
            <path class="cls-3"
                  d="M65.84,384.39a36.75,36.75,0,0,0,9.79,5.43c5.89,2.12,6.08,1.27,3.84,0s-7.63-4.74-10-5.69S64.54,383.66,65.84,384.39Z"/>
            <path class="cls-3"
                  d="M144.86,206.88c-.93.15-11.83-4.4-13.29-4.84s-1.86.29.67,1.51a102.34,102.34,0,0,0,10.91,4.55C145.52,208.76,144.86,206.88,144.86,206.88Z"/>
            <path class="cls-3"
                  d="M128.33,198.6s-4-2.39-12.38-4.61-9-.59-10.12-1.38,1.27.62,5.85,1.74,6.13,3.6,10.53,4.54S128.33,198.6,128.33,198.6Z"/>
            <path class="cls-3" d="M143.37,211.44s-7.92-5.16-10.69-5.09S138.09,209.54,143.37,211.44Z"/>
            <path class="cls-3"
                  d="M123.36,203.53s-8.62-5.93-14.53-6.19-8.88,0-8,.2,9.54,1.9,13.91,3.58A52.66,52.66,0,0,0,123.36,203.53Z"/>
            <path class="cls-3" d="M142.79,216.23s-9.92-4.63-12.59-5.49S134.2,215.11,142.79,216.23Z"/>
            <path class="cls-3" d="M119.69,208.55s-2.57-3.32-10.37-5.64-8.82-1.37-8.82-1.37,7,4,13.08,5.51Z"/>
            <path class="cls-3"
                  d="M143.73,222.93s-10-3.15-13.6-5-4.92-.22-1.28,1.18A104.65,104.65,0,0,0,143.73,222.93Z"/>
            <path class="cls-3"
                  d="M118.23,213.67s-9.63-5.36-14.3-5.81-.82,1.69,4.56,2.91A81.44,81.44,0,0,1,118.23,213.67Z"/>
            <path class="cls-3" d="M118.55,217.63s-17-5.69-18.78-5,5.1,1.95,11.67,4S118.55,217.63,118.55,217.63Z"/>
            <path class="cls-3" d="M116.38,223.39s-8.52-6.2-16-5.7S111.8,222.45,116.38,223.39Z"/>
            <path class="cls-3"
                  d="M114.84,228.88c-.44-.15-10.73-4-16.24-5.16s-4.06-.18.13,1.3,6.7,3.44,11,4.83S118.86,230.16,114.84,228.88Z"/>
            <path class="cls-3"
                  d="M112.73,234.89s-.63-.49-9.34-4.21-9.8-4.5-10.59-3.42,2.59,2.24,7.13,4.29,7.54,3,10,4S116.71,236.92,112.73,234.89Z"/>
            <path class="cls-3"
                  d="M105.56,238.09a47.51,47.51,0,0,0-11.18-4.65c-4.57-1.13-6-1.2,1.94,2.3S114.42,242.74,105.56,238.09Z"/>
            <path class="cls-3"
                  d="M107.6,244.19s-2.19-.65-8.82-3.44-7.54-3.2-9-2.43.31,1.31,6.79,3.54S112.17,247.63,107.6,244.19Z"/>
            <path class="cls-3" d="M142.48,227.5s-13.12-4.65-14.95-5.1S133.61,227.11,142.48,227.5Z"/>
            <path class="cls-3" d="M139.31,232.17s-8.07-1.43-11.49-3.65C127.82,228.52,135,229,139.31,232.17Z"/>
            <path class="cls-3"
                  d="M137.61,237.28a27,27,0,0,1-9.22-.78c-4-1.28-5-3.55-5-3.55S136,236.65,137.61,237.28Z"/>
            <path class="cls-3" d="M134.79,242.34s-11.84-4-14.43-4.15S131.26,242.74,134.79,242.34Z"/>
            <path class="cls-3"
                  d="M134.36,248.05s-7.66-2.56-10.79-2.88a11.73,11.73,0,0,1-5.11-1.7S131,245.13,134.36,248.05Z"/>
            <path class="cls-3" d="M132.06,254.06s-8.1-1.1-11.9-2.93l-3.81-1.83S129.73,252.29,132.06,254.06Z"/>
            <path class="cls-3" d="M127.76,259.42s-18.62-6-15.1-6S129,257.26,127.76,259.42Z"/>
            <path class="cls-3" d="M128.49,263.71s-16.33-3.12-17-4.27S125.09,261.15,128.49,263.71Z"/>
            <path class="cls-3" d="M124.94,268.73s-18.63-5.62-14.41-4.88S122,264.35,124.94,268.73Z"/>
            <path class="cls-3"
                  d="M123.89,271.46s-10.39-3.6-12.79-3.52,6.77,5.85,12.37,4.62S123.89,271.46,123.89,271.46Z"/>
            <path class="cls-3"
                  d="M123.6,278.11s-7.85-2.38-11.32-3.46l-3.47-1.07a61.71,61.71,0,0,0,7.92,3.74A18.62,18.62,0,0,0,123.6,278.11Z"/>
            <path class="cls-3"
                  d="M122.23,284.1s-4-.68-8.32-1.73-10.78-3-8.45-4.07,7.07,1.92,9.87,2.78S123.65,284.1,122.23,284.1Z"/>
            <path class="cls-3"
                  d="M119.41,289.28c.37-.11,1.13-2-1.06-2.45a65.64,65.64,0,0,1-8-2.33c-3.94-1.35-6.51-.53-2,1.14S119.41,289.28,119.41,289.28Z"/>
            <path class="cls-3" d="M119,292.77s-7.28-1.49-12.15-2.81-6.84-3.08-2.74-2.22S117.66,291.23,119,292.77Z"/>
            <path class="cls-3"
                  d="M116.9,295.83c-.36,0-6.62-1-10.65-1.83s-5.78-1.79-1.9-1.68a21.09,21.09,0,0,1,8.26,1.53C115.77,295,119.36,296.06,116.9,295.83Z"/>
            <path class="cls-3"
                  d="M118,302.85c-1.65-.2-9-1-11.26-2s-7.78-2.56-4.91-3.42,3.46-.22,7.63.34,5.4.85,7.14,1.73S119.61,303,118,302.85Z"/>
            <path class="cls-3"
                  d="M116,309.3c1.25-.44,2.9-1.48-2.47-2.7s-7.46-1.44-11.37-2.35-1.79,1.4,3.09,2.6S116,309.3,116,309.3Z"/>
            <path class="cls-3"
                  d="M114.68,314.05l-17-5.68A55.67,55.67,0,0,1,108,310.05,16.26,16.26,0,0,1,114.68,314.05Z"/>
            <path class="cls-3" d="M88.79,305.14S70,298.52,68.9,297.6s9.39,2.51,14,4.2S88.79,305.14,88.79,305.14Z"/>
            <path class="cls-3"
                  d="M89.81,299c-.73-1.29-6.35-1.52-11.25-5.06s-8-2.08-8-2.08,7.61,3.66,11.61,5.2S91.29,301.67,89.81,299Z"/>
            <path class="cls-3"
                  d="M91.52,293.67s-1.48-.07-8.61-3.47-9.72-3.38-9.72-3.38,0,2.83,5.14,3.8,9.5,2.88,11.81,3.6S94.06,294.89,91.52,293.67Z"/>
            <path class="cls-3"
                  d="M93.64,287.47A37.94,37.94,0,0,1,83,284.9c-4.47-2-9-3.85-5.85-1.49s3.47,2.5,8.69,4.33S97.08,287.87,93.64,287.47Z"/>
            <path class="cls-3"
                  d="M94.78,284.06s-.64-2.25-4.88-4a58.25,58.25,0,0,0-12.06-3.37c-1.85-.2.81,1.15,6.14,3.36s7.78,2.56,9.32,4S94.78,284.06,94.78,284.06Z"/>
            <path class="cls-3"
                  d="M96.64,278.35c-8.15-2.71-12.35-5.48-16.27-6.15s-2.35.27,2.11,2.56,8.65,2.48,11.92,4S96.64,278.35,96.64,278.35Z"/>
            <path class="cls-3"
                  d="M97.53,274.93s3.1-.48-5.38-4.06-13.42-3.3-13.42-3.3,2.17,1.08,6.66,2.88S97.53,274.93,97.53,274.93Z"/>
            <path class="cls-3"
                  d="M99.21,270.32s2-.16-3.95-2.77A89.89,89.89,0,0,0,81.89,263c-2.2-.59-1.21-.55,5.55,2.71S98,269.53,99.21,270.32Z"/>
            <path class="cls-3"
                  d="M101.91,265s2.66-1.49-3.91-3.75-10.93-3.94-13.24-4.65,1.37,2.52,6.21,4.71A74.32,74.32,0,0,0,101.91,265Z"/>
            <path class="cls-3" d="M104,259.55S89.73,253,87,252.88,103,260.49,104,259.55Z"/>
            <path class="cls-3" d="M104.28,253.15s-13-3.42-15.59-4.64,8.51,5.68,12,7S107.58,253.91,104.28,253.15Z"/>
            <path class="cls-3"
                  d="M105.51,250.36a36.56,36.56,0,0,0-10-5c-6-1.87-6.13-1-3.84.2s7.83,4.42,10.26,5.26S106.84,251,105.51,250.36Z"/>
        </g>
    </g>
</svg>