<svg xmlns="http://www.w3.org/2000/svg" viewBox="0 0 476.7 609.88">
    <defs>
        <style>.cls-1{fill:#231f20;}.cls-2,.cls-3{fill:#fff;}.cls-3{stroke:#231f20;}</style>
    </defs>
    <title>Asset 4</title>
    <g id="Layer_2" data-name="Layer 2">
        <g id="Layer_1-2" data-name="Layer 1">
            <g id="_4" data-name=" 4">
                <path class="cls-1"
                      d="M25,597.29a20.16,20.16,0,0,1,5.19-8.42,65,65,0,0,0,9.14-12c3-5.2,2-4.3,3-7.88s1.25-5.2,3.58-7.89,5.55-10.92,7.16-14.51S73,478.53,76.37,471.12s.72-12.42,7.4-23.17,16.72-34.15,23.65-48.72l6.93-14.57s-1.32.84-5.26-.59c0,0,.84,3.1-2.27,3.46a5.41,5.41,0,0,1-4.66-1.43s.48,2.62-3.34,2.5-6.8-1.79-10.75-3.22-5.25-4.66-6.45-9.08S80.19,364.72,78,361.62s-2.63-2.75-2.51-6.21-3.34-14.57-6-21.62-7.28-18.39-7.16-28.3-.12-14-.6-17.91,1.79-14.21,7-25.08a125,125,0,0,1,17.55-25.79c3.11-3.23,4.9-3.59,5.37-8.37s6.09-23.28,11.11-28.89,17.91-10,27.71-20.19,11-9.91,13.85-14,6.81-9.67,4.06-20.78-3.35-12.77-4.66-16.83-6.06-11.56-6.06-20.16,7.4-22.21,16.84-26.15,28.06-1,34.75,1.55,12.3,5.5,14.81,10.63.36,12.18.36,16.6-1,3.35.23,7.29,1.2,3.82-.35,5.85a5.82,5.82,0,0,0-.72,6c.72,1.67,2.15,4.65,1.19,6.8s-1.55,2.27-1.55,2.27a15.75,15.75,0,0,0-1.31,4.18c0,1.32-1.2,1.91-2,2.15s-2,2.87-1.44,4.54,1.68,2.27.48,5-2.86,2.86-2.86,5.25.47,1.55.47,1.55,4.3-3.7,14.22-5.25,16.83,3.7,24.24-1,13.37-7,19.1-7.52,8.6-1.07,10.63-3.34,7.76-9.68,13.62-14.22,14.45-11.46,15.64-12.77l1.19-1.32s-25.91-13.25-38.09-25.07S233,67.07,226.7,62.77s-21.5-16.3-28-36c0,0-36-15.59-40.66-18.45S152.49,2.94,152.85,1s2.5-.54,4.83.72S196.8,19.78,196.8,19.78s-.71-3.94,3-3.76,18.09,3.76,26.15,3.4,8.42.36,15.4,4.12,12.72,3.41,18.81,5.2S289,44.32,312.29,49.34,342,54.71,354.92,65.82,379.33,85.16,389.7,93s28,25.72,33.1,33.36,6.45,10.51,9.44,15,3,5.37,3,5.37,13,7.4,21.86,11.82a113,113,0,0,1,17.77,10.56c3.46,2.62,1.43,4.78-1.31,4.42s-9.68-4.18-13.5-6.92S449.19,159.8,440.7,155,429,149.39,429,149.39s-19-1.67-32.48-2.75-15.88-.95-29.14-5.61-20.52-3.32-28.67-6-25.31-10.63-25.31-10.63-10.87,21.38-15.53,26.15a112.41,112.41,0,0,1-11.11,9.92c-2.38,1.91-10.15,4.18-14.33,6.8s-20.18,12.66-23.76,14.09c-13,5.2-18.27,6.33-22.81,7s-11.94,4.77-10.51,13.14,3.91,17.31,4.72,26.71,2.21,29.17,3.4,43.5,3.11,41.08,3.11,43.95.24.95.24.95l31.58-13.25s-2.15-4.12,15.05-10.93,61.26-23,61.26-23-19.34,12.9-30.81,19-34.75,20.06-44.6,18.27L226.9,324.3a47.66,47.66,0,0,0,4.12,6.45c2.15,2.68,5.55,8.59,5.55,15.22s-1.61,2.87.18,9.67,1.43,14.15,5.37,18.81,16.66,35.29,18.81,40.49,2.51,5.37,2.87,8.24-.18,3.94-.18,3.94,3.94,14.15,7.34,16.12,7.17,5.91,7.17,10.74-3.76,10.22-3.76,14.87,3,24,4.3,46,2.32,35.82,7.16,39.59,8.24,5.37,14.51,9.31,5,6.09,12.9,6.27,10.57,2.51,10.57,2.51l1.25,1.79s.89.18,2.15,2.15a5.28,5.28,0,0,1,1.07,3.22s2.51.18,3.77,3.76,0,5.92-7.71,4.48A71.13,71.13,0,0,0,314,586.5a34.62,34.62,0,0,1-13.25-4.08c-5.91-3-14.33-1.61-17.91-1.25a136.91,136.91,0,0,1-19-.18c-5.56-.54-9.32-6.27-8.24-10.93s3.22-6.81,3.4-13.08-1.07-29.55-6.09-42.81-10.21-22.39-10.75-30.09-.53-12-.53-12-7,15.48-2.2,24.78c-1.19-2.17-3.77-7.52-3.36-12.24.54-6.09,1.26-5-.54-9.86-1.62-4.37-2.94-5.68-2.91-9.2-.31,4-.93,7.89-2.1,10.1-3,5.73-2.33,7.34-3.23,11.82s-2.14,3.23-2.86-.18-.9-5.19-.9-5.19,0,5.91-.35,11.82-3.41,6.81-3.41,6.81,2.15,3,.72,3.58-3.05-.72-4.3-5.19-1.61-3.05-1.43-8.24-2.33,5.73-1.44,9.13.18,6.81-2.15,2.69-.53-5.38-2.5-7.88-4.48-2-4.3-8.78v-1c-.18,2.39-.91,8.95-3.26,10.83-3.58,2.87-5.91,4.48-3.76.18s5.73-5,4.48-10.75-1.79-8.77-2.69-9.85-3.58-3.76-4.12,2.33a116.29,116.29,0,0,0-.53,16.48c.17,8.24,1.79,7.34-1.26,20.06s-5.19,17.73-12.9,18.09-22.92-13.61-27.22-27.76-5.91-18.27-8.6-24.36-6.81-11.11-7.52-15.41S138,444.65,138,444.65s-4.12,2.69-5.55,5.73A119.2,119.2,0,0,1,121.53,467c-3.58,4.3-1.43,5-7.52,8.24S99,488.92,94.7,498.77,76.25,534.23,72,543.37s-7.16,19.7-6.63,23.82-.89,6.27-2.15,10.22-3,9.31-4.83,14-.36,6.27-4.3,9.85-2.33,9-9.32,8.6c-4.65-.18-2.86-3.77-2.86-3.77s-1.61,2.69-3.58,2.15a2.52,2.52,0,0,1-2-2.32s-1.79,2.68-4.83.35a3.84,3.84,0,0,1-.54-2.32s-2,2.14-3.76-.72S23.77,600.87,25,597.29Zm97.45-242.48a40,40,0,0,1,1.19-8.36c1.07-3.82,3.11-4.42,4.3-11.94s5.37-8.84,10.63-13.38,3.94-3.7,8.83-11.46,4.54-7.64,5.26-10-.12-8.72-2.15-12.18-3.11-10.27-8.72-19.95-5.61-11.46-9.79-19.46a122.12,122.12,0,0,0-7.88-13.14c-1.2-1.91-2-1.19-5.61,2.63S108.14,252.74,104.08,259,91.3,279.37,89.39,282.71,88,294.06,88.31,297.4s2.87,16.12,2.39,23.88,1.2,15.05,2.15,21.86S98,354.36,100,355.2s5.13-.48,7.52-.6,5.25-.84,8.24.36S122.47,354.81,122.47,354.81Zm-7.17,11,3.94-1.2-.24-.84-1.19-.11c-1.2-.12-2.87-.36-3.46.59s1,1.55,1,1.55ZM239.65,497.32l.32.55S239.84,497.66,239.65,497.32Z"/>
                <path class="cls-1" d="M85,379.89.42,419.06s-1.91,5.49,2.39,5.73,90-38.46,90-38.46Z"/>
                <path class="cls-2"
                      d="M403.7,112.57c-.53.36-3.94,7.7-4.47,8.6s-1.08.71-.36-1.08a72.85,72.85,0,0,1,3.4-7.34C403.16,111.31,403.7,112.57,403.7,112.57Z"/>
                <path class="cls-2"
                      d="M396.17,127.79a34.65,34.65,0,0,1-4.12,8.06c-3.22,5-4.3,4.48-4.48,5.38s.36-.9,2.15-3.58,1.44-4.66,3.23-7.17S396.17,127.79,396.17,127.79Z"/>
                <path class="cls-2" d="M400.83,111s-1.61,6.27-3,7.52S399,114.36,400.83,111Z"/>
                <path class="cls-2"
                      d="M394.38,124.21s-1.61,7-4.48,9.85-4.47,4.12-4.12,3.59a84.41,84.41,0,0,0,5.38-8.24A36.6,36.6,0,0,1,394.38,124.21Z"/>
                <path class="cls-3"
                      d="M260.7,479.06c-5.91.1-15-4.83-17.55-9.67s-1.61,2.69-1.61,2.69,0,2.5,7.34,6.27,10,4.48,10,4.48.9,1.07-2,7.7-4.66,4.66-.36,12.18,5,9.31,7.89,12.9,2.68,1.25,3.94,7.34,2.14,15.94,2.86,19.17a24.36,24.36,0,0,0,4.66,8.59c.71.54,5.19-4.3,7.34-3.4s.72,1.25,2.87-3.4,5.55-7.17,3.22-15.41-.36-9.13-1.61-15.76-2.69-16.66-2.15-20.24,1.79-5,.72-8.42.18-1.79-1.61-5.2-.18-5.91-3.23-7.34-6.81-3.58-7.34-.9S271.7,478.88,260.7,479.06Z"/>
                <path class="cls-3"
                      d="M115.3,471.72s0,3.94.36,11.46,7.16,14,4.66,26.87-5,11.82-6.45,20.06-7.53,11.83-8.6,14.69-8.24,4.3-8.6,6.45S96,544.44,95.6,547s-1.08-4.3-1.44-2.15-2.86-2.5-2.86-.71-3.58-6.45-3.58-4.66-1.08-6.09-3.23-1.43,1.43,4.3-2.51,8.59-.36,1.79-3.94,4.3-7.52.36-9,.72-9-3.94-9-2.87S57.94,547,57.94,547s-1.08-2.86-2.15-2.51-7.88-2.5-7.52-3.58-.64-4.77-1.44-3.58-3.22,0-3.22,0l-1.79-3.23-.72-1.43,1.43-6.09s-2.5-10.39,3.59-19S42.89,500,54.36,490.7s17.55-20.42,20.06-23.65,7.52,5.73,18.63,11.82S111.7,479.24,115.3,471.72Z"/>
                <path class="cls-2"
                      d="M199.62,223.88a13.76,13.76,0,0,0,5.2-8.2h0a27.45,27.45,0,0,0,.77-6.82h0c0-8.29-2.78-17.65-5.8-25.41h0a97,97,0,0,0-7.49-15.58h0a2.86,2.86,0,0,0-.65-.74h0a1.45,1.45,0,0,0-.88-.29h0v1.55l-.6.66-.34.28h0c.09.12.24.35.44.67h0c.38.63.92,1.59,1.55,2.79h0c1.27,2.42,2.9,5.83,4.52,9.78h0c3.23,7.89,6.35,17.93,6.34,26.23h0a24.71,24.71,0,0,1-.68,6.12h0a10.86,10.86,0,0,1-4.09,6.57h0a11.59,11.59,0,0,1-6.93,1.95h0c-8.15.05-19.23-5.83-26-12.76h0c-4.77-4.85-10.21-13-14.4-21.21h0c-4.2-8.16-7.13-16.47-7.1-21.18h0a4.67,4.67,0,0,1,.89-3.06l.16-.2,1.17-1.59c-.09-.2-3.16.12-5.07,4.91h0c0,5.71,3.13,14.07,7.42,22.49h0c4.3,8.39,9.81,16.7,14.9,21.91h0c7.28,7.37,18.61,13.57,28,13.62h0a14.53,14.53,0,0,0,8.58-2.49Z"/>
                <path class="cls-2" d="M398.32,108.81s-2.86,6.92-3.82,8.6S394.5,113.35,398.32,108.81Z"/>
                <path class="cls-2"
                      d="M390.2,123.37s.24,2.87-2.63,7.65-3.87,4.78-3.87,4.78a42.73,42.73,0,0,1,4.11-8.8Z"/>
                <path class="cls-2"
                      d="M395.7,105a88.75,88.75,0,0,0-4.54,8.84c-1,2.63-2.39,2.39-1.2,0A72.26,72.26,0,0,1,395.7,105Z"/>
                <path class="cls-2"
                      d="M387.1,121.47s-2.4,7.16-4.54,9.53-1.2-.48,1-3.58A54.86,54.86,0,0,0,387.1,121.47Z"/>
                <path class="cls-2"
                      d="M385.43,119.32s-6,10.74-7.17,11.22,1.67-3.34,4.06-7.4S385.43,119.32,385.43,119.32Z"/>
                <path class="cls-2" d="M381.7,117.41s-1.43,7.07-5.46,10.3S379.78,120,381.7,117.41Z"/>
                <path class="cls-2"
                      d="M378.35,115.34a109.08,109.08,0,0,1-5.82,10.12c-2.24,3.14-2,2-.54-.71s1.79-4.84,3.31-7.52S379.78,112.84,378.35,115.34Z"/>
                <path class="cls-2"
                      d="M374.5,113.28a65.61,65.61,0,0,1-2.78,6.45c-2.69,5.91-2.86,6.81-3.76,6.63s.27-2.33,1.61-5.46,2.42-5,3.23-6.63S375.57,110.42,374.5,113.28Z"/>
                <path class="cls-2"
                      d="M369.39,115a32.55,32.55,0,0,1-3.49,7.52c-1.79,2.69-2.51,3.4-.09-2.06S371.7,108.54,369.39,115Z"/>
                <path class="cls-2"
                      d="M367.6,111s-.8,1.34-2.87,5.82-2.32,5.1-3.4,5.37-.45-.8,1.79-4.92S368.32,107.1,367.6,111Z"/>
                <path class="cls-2" d="M393,103.25s-4.48,8.42-5.2,9.5S388.65,107.55,393,103.25Z"/>
                <path class="cls-2" d="M389.19,102.36s-3.42,4.46-4.12,7.16C385.07,109.52,388.47,105.94,389.19,102.36Z"/>
                <path class="cls-2"
                      d="M386,100.57a19,19,0,0,0-4.3,4.65c-1.43,2.51-.89,4.12-.89,4.12S385.43,101.64,386,100.57Z"/>
                <path class="cls-2" d="M382.2,99.31s-4.12,7.53-5.37,8.78S380.23,100.75,382.2,99.31Z"/>
                <path class="cls-2" d="M379.33,96.63a55,55,0,0,1-4.11,6.45,8,8,0,0,0-1.8,3.22S379,99.67,379.33,96.63Z"/>
                <path class="cls-2" d="M375.39,94.66s-3.58,4.29-4.65,7l-1.08,2.69S375,96.63,375.39,94.66Z"/>
                <path class="cls-2" d="M370.7,93.94s-6.63,11.64-4.84,10S372.35,94.48,370.7,93.94Z"/>
                <path class="cls-2" d="M369.12,91.43s-6.8,9.14-6.62,10S368.59,94.3,369.12,91.43Z"/>
                <path class="cls-2" d="M365,90.54s-6.8,11.46-5,9.13S365.54,94.12,365,90.54Z"/>
                <path class="cls-2" d="M363.21,89.64s-3.58,6.63-4.83,7.7.71-6.09,4.12-8.06S363.21,89.64,363.21,89.64Z"/>
                <path class="cls-2"
                      d="M360,86.42s-2.87,4.83-4.12,7l-1.26,2.15A44.22,44.22,0,0,1,356.88,90,13,13,0,0,1,360,86.42Z"/>
                <path class="cls-2"
                      d="M356.53,84s-1.74,2.21-3.41,4.71-4.06,6.51-2.39,6,2.69-4.23,3.71-6S357.24,83.37,356.53,84Z"/>
                <path class="cls-2"
                      d="M352.7,82.71c.24-.12,1.5.48.6,1.74a43,43,0,0,0-3,4.89c-1.38,2.51-3.05,3.28-1.56.36S352.7,82.71,352.7,82.71Z"/>
                <path class="cls-2" d="M350.85,81.16s-3,4.12-4.83,7-2,4.71-.36,2.39S350.91,82.53,350.85,81.16Z"/>
                <path class="cls-2"
                      d="M348.4,80.56c-.16.19-2.86,3.59-4.53,5.86s-2.09,3.58-.18,1.73a14.2,14.2,0,0,0,3.46-4.6C348.23,81.52,349.54,79.31,348.4,80.56Z"/>
                <path class="cls-2"
                      d="M345.7,76.5c-.74.87-4.06,4.66-4.78,6.21s-2.75,4.9-.89,4,1.87-1.49,3.67-3.71,2.33-2.92,2.81-4.18S346.44,75.67,345.7,76.5Z"/>
                <path class="cls-2"
                      d="M341.7,74.18c.83-.36,2.15-.6,0,2.5s-3.11,4.18-4.66,6.45-1.55.12.36-2.75S341.7,74.18,341.7,74.18Z"/>
                <path class="cls-2"
                      d="M338.85,72.38l-6,10.75a36.87,36.87,0,0,0,4.42-5.61A11.13,11.13,0,0,0,338.85,72.38Z"/>
                <path class="cls-2" d="M329.9,88.86s-6.45,12.06-6.57,13,3.58-5.61,5.13-8.6S329.9,88.86,329.9,88.86Z"/>
                <path class="cls-2"
                      d="M333.24,91.49c.23,1-2.51,3.7-3.34,7.76s-3.11,4.78-3.11,4.78,2.15-5.37,3.46-8S332.76,89.46,333.24,91.49Z"/>
                <path class="cls-2"
                      d="M336.58,93.4s-.71.72-2.74,5.73-3.35,6.21-3.35,6.21-1.31-1.43.84-4.3a57.26,57.26,0,0,0,4.3-7.28C336.46,92.33,337.3,91.61,336.58,93.4Z"/>
                <path class="cls-2"
                      d="M340.52,95.55a26.34,26.34,0,0,0-4.18,6.21c-1.31,3.11-2.74,6.09-2.27,3.46s.6-2.86,2.39-6.2S342.08,93.76,340.52,95.55Z"/>
                <path class="cls-2"
                      d="M342.7,96.75s.72,1.43-.59,4.29a40,40,0,0,1-4.54,7.29c-.84,1-.12-1,1.55-4.54s2.75-4.89,2.87-6.33S342.7,96.75,342.7,96.75Z"/>
                <path class="cls-2"
                      d="M346.26,98.78c-2.87,5.13-3.71,8.47-5.38,10.62s-1.31,1-.12-2.26,3.23-5.26,4.18-7.53S346.26,98.78,346.26,98.78Z"/>
                <path class="cls-2"
                      d="M348.29,100.09s1.79-1.19-.84,4.54-5.25,7.88-5.25,7.88.59-1.55,2-4.54S348.29,100.09,348.29,100.09Z"/>
                <path class="cls-2"
                      d="M351.27,101.64s1.08-.84-.72,3.23a61.71,61.71,0,0,1-4.65,8.48c-.84,1.31-.36.83,1.55-3.95S351,102.6,351.27,101.64Z"/>
                <path class="cls-2"
                      d="M355.09,103.08s2-.48-.24,3.7-3.7,7-4.53,8.47-.48-1.9.95-5.25A51.25,51.25,0,0,1,355.09,103.08Z"/>
                <path class="cls-2" d="M358.7,104.87s-4.18,9.91-5.49,11.22S357.7,104.87,358.7,104.87Z"/>
                <path class="cls-2" d="M361.78,108s-5,7.76-5.73,9.55,1.67-6.8,2.87-9.07S363.09,106.06,361.78,108Z"/>
                <path class="cls-2"
                      d="M363.7,108.81A24.82,24.82,0,0,1,361,116c-2.14,3.7-2.62,3.35-2,1.67a78.17,78.17,0,0,1,2.74-7.4C362.5,108.69,364.05,107.85,363.7,108.81Z"/>
                <path class="cls-2"
                      d="M320,64.53c-.51.4-3.22,8-3.67,9s-1,.81-.46-1a73.39,73.39,0,0,1,2.71-7.62C319.32,63.33,320,64.53,320,64.53Z"/>
                <path class="cls-2"
                      d="M313.89,80.38a34.79,34.79,0,0,1-3.36,8.41c-2.74,5.29-3.86,4.85-4,5.76s.28-.92,1.81-3.76,1-4.77,2.55-7.43S313.89,80.38,313.89,80.38Z"/>
                <path class="cls-2" d="M317,63.19s-1,6.39-2.33,7.77S315.5,66.74,317,63.19Z"/>
                <path class="cls-2"
                      d="M311.78,77s-1,7.1-3.55,10.22-4.08,4.52-3.77,4a83.91,83.91,0,0,0,4.59-8.7A35.84,35.84,0,0,1,311.78,77Z"/>
                <path class="cls-2" d="M314.28,61.28s-2.22,7.16-3,8.91S310.89,66.15,314.28,61.28Z"/>
                <path class="cls-2"
                      d="M307.54,76.53s.5,2.84-1.91,7.86-3.36,5.11-3.36,5.11a41.71,41.71,0,0,1,3.22-9.18Z"/>
                <path class="cls-2"
                      d="M311.31,57.71a89.55,89.55,0,0,0-3.7,9.22c-.71,2.71-2.16,2.6-1.19.11A72,72,0,0,1,311.31,57.71Z"/>
                <path class="cls-2"
                      d="M304.27,74.92s-1.72,7.35-3.63,9.93-1.24-.37.61-3.65A53.3,53.3,0,0,0,304.27,74.92Z"/>
                <path class="cls-2"
                      d="M302.41,72.93s-5,11.26-6.1,11.84,1.39-3.48,3.39-7.77S302.41,72.93,302.41,72.93Z"/>
                <path class="cls-2" d="M298.48,71.38s-.77,7.18-4.48,10.76S296.85,74.14,298.48,71.38Z"/>
                <path class="cls-2"
                      d="M295,69.63a109.3,109.3,0,0,1-4.86,10.62c-1.94,3.33-1.78,2.14-.6-.67s1.34-5,2.61-7.79S296.19,67,295,69.63Z"/>
                <path class="cls-2"
                      d="M291,67.94a64.27,64.27,0,0,1-2.17,6.68c-2.13,6.13-2.22,7-3.13,6.94s.05-2.34,1.1-5.59,1.94-5.21,2.59-6.89S291.77,65,291,67.94Z"/>
                <path class="cls-2"
                      d="M286,70.1a31.83,31.83,0,0,1-2.78,7.82c-1.53,2.84-2.18,3.62-.28-2S287.77,63.47,286,70.1Z"/>
                <path class="cls-2"
                      d="M283.89,66.26s-.68,1.41-2.32,6.06-1.87,5.3-2.87,5.68-.52-.76,1.33-5.07S284.24,62.36,283.89,66.26Z"/>
                <path class="cls-2" d="M308.41,56.25s-3.71,8.75-4.29,9.93S304.53,60.92,308.41,56.25Z"/>
                <path class="cls-2" d="M304.58,55.7s-3,4.75-3.43,7.51C301.15,63.21,304.2,59.33,304.58,55.7Z"/>
                <path class="cls-2"
                      d="M301.21,54.21a18.73,18.73,0,0,0-3.85,5c-1.2,2.63-.51,4.18-.51,4.18S300.77,55.33,301.21,54.21Z"/>
                <path class="cls-2" d="M297.35,53.31s-3.41,7.88-4.54,9.24S295.52,54.92,297.35,53.31Z"/>
                <path class="cls-2"
                      d="M294.24,50.9a52.59,52.59,0,0,1-3.5,6.8,8.11,8.11,0,0,0-1.49,3.38S294.17,54,294.24,50.9Z"/>
                <path class="cls-2" d="M290.14,49.31s-3.17,4.61-4,7.38l-.83,2.78S290,51.3,290.14,49.31Z"/>
                <path class="cls-2" d="M285.44,49s-5.53,12.21-3.89,10.44S287.09,49.41,285.44,49Z"/>
                <path class="cls-2" d="M283.6,46.67s-5.94,9.73-5.67,10.61S283.33,49.58,283.6,46.67Z"/>
                <path class="cls-2" d="M279.41,46.16s-5.72,12.05-4.15,9.56S280.28,49.68,279.41,46.16Z"/>
                <path class="cls-2" d="M277.55,45.44s-3,6.93-4.11,8.11.15-6.13,3.36-8.4S277.55,45.44,277.55,45.44Z"/>
                <path class="cls-2"
                      d="M274,42.52s-2.41,5.09-3.46,7.34l-1,2.26a42.68,42.68,0,0,1,1.75-5.74A13,13,0,0,1,274,42.52Z"/>
                <path class="cls-2"
                      d="M270.37,40.47s-1.52,2.36-2.95,5-3.44,6.85-1.83,6.16,2.28-4.47,3.14-6.28S271,39.75,270.37,40.47Z"/>
                <path class="cls-2"
                      d="M266.44,39.51c.23-.14,1.53.34.76,1.67a42.9,42.9,0,0,0-2.5,5.15c-1.14,2.63-2.73,3.55-1.52.5S266.44,39.51,266.44,39.51Z"/>
                <path class="cls-2" d="M264.46,38.14s-2.6,4.37-4.17,7.46-1.59,4.88-.14,2.41S264.64,39.5,264.46,38.14Z"/>
                <path class="cls-2"
                      d="M262,37.77c-.15.2-2.52,3.83-4,6.25s-1.74,3.75,0,1.73a14.11,14.11,0,0,0,3-4.89C261.87,38.74,263,36.42,262,37.77Z"/>
                <path class="cls-2"
                      d="M258.91,34c-.66.94-3.61,5-4.18,6.63s-2.28,5.13-.52,4.07,1.7-1.66,3.34-4,2.05-3.13,2.41-4.42S259.55,33.08,258.91,34Z"/>
                <path class="cls-2"
                      d="M254.7,32c.8-.44,2.09-.8.23,2.49s-2.7,4.45-4,6.85-1.53.27.11-2.76S254.7,32,254.7,32Z"/>
                <path class="cls-2" d="M251.7,30.51l-5,11.25a37.5,37.5,0,0,0,3.88-6A11.07,11.07,0,0,0,251.7,30.51Z"/>
                <path class="cls-2" d="M244.3,47.75S239,60.35,239,61.31s3-5.92,4.32-9S244.3,47.75,244.3,47.75Z"/>
                <path class="cls-2"
                      d="M247.87,50.05c.32,1-2.15,3.92-2.61,8s-2.65,5-2.65,5,1.64-5.55,2.71-8.28S247.21,48.07,247.87,50.05Z"/>
                <path class="cls-2"
                      d="M251.38,51.64s-.65.78-2.21,6-2.75,6.49-2.75,6.49-1.44-1.31.43-4.36a56.8,56.8,0,0,0,3.61-7.65C251.16,50.59,251.92,49.79,251.38,51.64Z"/>
                <path class="cls-2"
                      d="M255.5,53.42A26.3,26.3,0,0,0,251.91,60c-1,3.21-2.17,6.32-1.94,3.66s.33-2.91,1.81-6.41S256.88,51.49,255.5,53.42Z"/>
                <path class="cls-2"
                      d="M257.7,54.41s.85,1.36-.2,4.34a39.69,39.69,0,0,1-3.8,7.67c-.74,1-.21-.94,1.12-4.66s2.29-5.13,2.27-6.57S257.7,54.41,257.7,54.41Z"/>
                <path class="cls-2"
                      d="M261.51,56.1c-2.38,5.38-2.91,8.78-4.37,11.08s-1.22,1.07-.33-2.25,2.72-5.53,3.47-7.88S261.51,56.1,261.51,56.1Z"/>
                <path class="cls-2"
                      d="M263.65,57.22s1.67-1.35-.41,4.6-4.54,8.33-4.54,8.33.45-1.6,1.6-4.71S263.65,57.22,263.65,57.22Z"/>
                <path class="cls-2"
                      d="M266.76,58.49s1-.93-.41,3.28a58.61,58.61,0,0,1-3.86,8.87c-.71,1.39-.27.87,1.19-4.07S266.61,59.46,266.76,58.49Z"/>
                <path class="cls-2"
                      d="M270.7,59.56s2-.66.11,3.71-3,7.36-3.74,8.86-.65-1.85.47-5.31A51.92,51.92,0,0,1,270.7,59.56Z"/>
                <path class="cls-2" d="M274.43,61S271.19,71.25,270,72.68,273.48,61.11,274.43,61Z"/>
                <path class="cls-2" d="M277.81,63.82s-4.27,8.19-4.82,10,1-6.93,2-9.3S278.94,61.8,277.81,63.82Z"/>
                <path class="cls-2"
                      d="M279.79,64.48a24.7,24.7,0,0,1-2.09,7.39c-1.8,3.88-2.31,3.57-1.87,1.85s1.37-6,2-7.63S280.06,63.49,279.79,64.48Z"/>
            </g>
        </g>
    </g>
</svg>